<svg width="24" height="24" viewBox="0 0 24 24" fill="none" xmlns="http://www.w3.org/2000/svg">
<path d="M12 12L12.0036 12.0435L18.7356 12.5802C21.7084 12.8173 24 15.2989 24 18.2811C24 21.4396 21.4344 24 18.276 24C15.2965 24 12.8097 21.7162 12.5622 18.747L12.0036 12.0435L11.4583 12H12L5.25302 11.4378C2.28385 11.1903 0 8.70824 0 5.72877C0 2.56486 2.56486 0 5.72877 0C8.70824 0 11.1903 2.28385 11.4378 5.25302L12 12Z" fill="#244D4D"/>
<path d="M12 12L12.0435 11.9964L12.5802 5.26437C12.8173 2.2916 15.2989 0 18.2811 0C21.4396 0 24 2.56557 24 5.72405C24 8.70352 21.7162 11.1903 18.747 11.4378L12.0435 11.9964L12 12.5417V12L11.4378 18.747C11.1903 21.7162 8.70824 24 5.72877 24C2.56486 24 0 21.4351 0 18.2712C0 15.2918 2.28385 12.8097 5.25302 12.5622L12 12Z" fill="#244D4D"/>
</svg>
