<?xml version="1.0" standalone="no"?>
<!DOCTYPE svg PUBLIC "-//W3C//DTD SVG 20010904//EN"
 "http://www.w3.org/TR/2001/REC-SVG-20010904/DTD/svg10.dtd">
<svg version="1.0" xmlns="http://www.w3.org/2000/svg"
 width="1232.000000pt" height="823.000000pt" viewBox="0 0 1232.000000 823.000000"
 preserveAspectRatio="xMidYMid meet">

<g transform="translate(0.000000,823.000000) scale(0.100000,-0.100000)"
fill="#000000" stroke="none">
<path d="M0 8166 l0 -65 58 -7 c37 -4 51 -9 38 -14 -10 -3 19 -7 65 -8 46 -1
99 -6 118 -11 19 -6 38 -8 43 -5 4 3 21 -1 36 -8 15 -8 44 -15 66 -16 21 -2
73 -10 115 -18 42 -8 99 -18 126 -21 28 -3 52 -9 53 -14 2 -5 18 -9 36 -9 17
0 63 -9 101 -19 39 -11 99 -24 135 -29 128 -21 249 -43 495 -93 138 -28 259
-53 270 -54 11 -2 76 -17 145 -34 69 -17 161 -38 205 -46 44 -8 100 -20 125
-25 25 -6 79 -17 120 -25 135 -26 214 -43 275 -59 33 -8 107 -24 165 -35 311
-60 592 -124 680 -156 19 -7 89 -20 155 -30 113 -15 197 -35 255 -57 60 -24
230 -32 250 -12 16 16 1 44 -29 56 -35 13 -160 46 -241 63 -98 21 -303 70
-431 104 -63 17 -125 32 -139 35 -14 2 -54 17 -90 34 -50 23 -85 31 -155 36
-49 3 -115 13 -145 21 -111 32 -207 56 -300 75 -323 65 -418 87 -430 100 -3 3
-18 6 -35 7 -16 1 -76 7 -132 13 -89 11 -103 15 -103 31 0 10 5 21 10 24 6 3
10 -2 10 -12 0 -15 8 -18 53 -17 28 0 76 -5 105 -11 28 -7 52 -10 52 -6 0 3 4
0 8 -7 10 -15 42 -5 42 14 0 13 -57 34 -94 34 -11 0 -33 4 -50 9 -83 25 -262
55 -401 67 -59 5 -73 9 -55 15 19 5 14 7 -25 8 -27 1 -90 9 -140 17 -49 9
-108 18 -130 19 -22 1 -62 10 -90 19 -27 9 -113 28 -190 41 -77 14 -158 30
-180 36 -22 5 -79 17 -127 24 -48 8 -114 21 -145 28 -32 8 -91 20 -131 27 -40
8 -75 17 -78 22 -3 4 -81 8 -175 8 l-169 0 0 -64z m1840 -276 c0 -5 -8 -10
-17 -10 -15 0 -16 2 -3 10 19 12 20 12 20 0z m40 0 c0 -5 -5 -10 -11 -10 -5 0
-7 5 -4 10 3 6 8 10 11 10 2 0 4 -4 4 -10z"/>
<path d="M528 8223 c6 -2 18 -2 25 0 6 3 1 5 -13 5 -14 0 -19 -2 -12 -5z"/>
<path d="M663 8223 c31 -2 57 -8 57 -13 0 -6 18 -10 40 -10 29 0 40 4 40 15 0
12 -17 15 -97 13 -66 -1 -79 -3 -40 -5z"/>
<path d="M1060 8221 c25 -3 60 -14 78 -24 22 -12 43 -16 62 -12 16 3 38 1 50
-5 16 -9 22 -8 26 5 9 22 -1 29 -41 29 -19 0 -35 4 -35 8 0 4 -42 7 -92 6 -69
-1 -81 -3 -48 -7z"/>
<path d="M1648 8223 c6 -2 18 -2 25 0 6 3 1 5 -13 5 -14 0 -19 -2 -12 -5z"/>
<path d="M1830 8211 c13 -11 29 -17 35 -13 6 4 2 8 -7 10 -10 2 -18 8 -18 13
0 5 -8 9 -17 9 -15 0 -13 -4 7 -19z"/>
<path d="M4800 8221 c0 -5 9 -7 20 -4 11 3 20 7 20 9 0 2 -9 4 -20 4 -11 0
-20 -4 -20 -9z"/>
<path d="M8850 8225 c0 -2 17 -13 38 -24 131 -67 219 -116 248 -138 15 -11 43
-29 88 -55 65 -38 69 -41 174 -118 56 -41 102 -78 102 -82 0 -5 9 -8 19 -8 17
0 142 -64 211 -109 14 -8 27 -16 30 -16 15 -2 105 -47 130 -65 19 -13 30 -17
30 -9 0 8 6 7 18 -4 9 -8 53 -32 97 -52 44 -21 103 -48 131 -61 28 -13 56 -24
62 -24 6 0 17 -6 24 -12 36 -35 108 -88 118 -88 6 0 8 -4 5 -10 -3 -5 -2 -10
4 -10 18 0 100 -55 101 -67 0 -7 7 -13 15 -13 8 0 24 -9 35 -20 11 -11 27 -20
35 -20 9 0 27 -12 40 -26 13 -14 28 -23 33 -20 5 3 25 -9 45 -25 20 -17 37
-27 37 -23 0 4 8 -3 19 -14 10 -12 21 -22 25 -22 13 0 66 -44 66 -55 0 -13 42
-55 55 -55 4 0 24 -12 44 -27 54 -42 101 -73 109 -73 4 0 22 -14 41 -30 18
-17 58 -44 89 -61 31 -17 68 -42 83 -55 14 -13 28 -24 31 -24 13 0 108 -63
108 -71 0 -5 4 -9 9 -9 6 0 31 -15 57 -32 25 -18 60 -41 78 -52 17 -10 40 -28
52 -40 32 -32 75 -66 83 -66 10 0 71 -81 71 -94 0 -7 -23 -11 -55 -11 -42 -1
-58 -5 -70 -20 -8 -11 -15 -15 -15 -9 0 12 -57 7 -65 -6 -3 -4 -25 -5 -50 -2
-27 3 -45 1 -45 -6 0 -5 -8 -12 -18 -15 -11 -2 -21 -14 -25 -26 -4 -17 -1 -21
19 -21 14 0 24 -6 24 -14 0 -8 7 -16 15 -20 8 -3 15 -16 15 -29 0 -14 -7 -30
-15 -37 -12 -10 -15 -9 -15 6 0 17 -1 17 -17 1 -17 -17 -16 -19 17 -48 19 -16
45 -38 57 -48 12 -10 23 -15 25 -10 2 5 26 -7 53 -26 28 -19 54 -34 59 -35 4
0 36 -22 70 -48 33 -27 96 -72 138 -101 43 -29 81 -57 84 -62 3 -6 17 -14 30
-19 14 -6 24 -18 24 -30 0 -11 9 -28 20 -37 11 -10 20 -28 20 -40 0 -23 13
-43 65 -98 33 -35 174 -105 211 -105 l24 0 0 744 0 744 -47 13 c-27 7 -61 12
-76 11 -15 -1 -38 3 -50 10 -12 7 -42 14 -67 14 -85 3 -158 13 -177 23 -10 5
-33 16 -50 23 -18 7 -33 18 -33 23 0 22 -22 34 -42 24 -15 -8 -18 -6 -18 16 0
19 -5 25 -22 26 -13 0 -17 3 -10 6 20 8 13 25 -8 18 -16 -5 -20 -2 -20 19 0
14 5 26 10 26 6 0 10 -4 10 -10 0 -24 24 -5 98 78 39 43 33 68 -20 77 l-40 7
24 16 c34 24 78 74 72 83 -10 17 26 24 131 26 91 2 112 5 122 20 12 16 14 16
26 0 10 -14 18 -15 47 -7 19 5 59 10 87 10 l53 0 0 380 0 380 -1735 0 c-954 0
-1735 -2 -1735 -5z m1547 -760 c0 -8 -4 -15 -9 -15 -10 0 -11 14 -1 23 9 10
10 9 10 -8z m483 -5 c0 -5 9 -10 20 -10 11 0 20 -4 20 -8 0 -4 9 -8 20 -9 11
-1 20 3 20 9 0 6 10 7 28 3 15 -4 41 -9 57 -12 17 -2 46 -9 65 -15 54 -17 168
-18 174 -1 3 8 10 12 14 9 5 -3 18 1 28 9 10 8 40 15 66 15 26 0 50 5 53 10
10 16 38 11 65 -10 14 -11 34 -20 46 -20 11 0 21 -6 21 -12 6 -117 -1 -145
-36 -150 -24 -4 -27 -1 -23 19 4 19 0 23 -21 23 -14 0 -29 -4 -32 -10 -3 -5 1
-10 9 -10 9 0 16 -4 16 -9 0 -12 -43 -19 -66 -10 -17 7 -17 8 -1 8 21 1 24 41
2 41 -18 0 -65 -21 -65 -30 0 -4 -13 -5 -30 -2 -28 4 -44 22 -19 22 5 0 7 5 4
11 -4 6 -19 7 -35 4 -18 -4 -33 -1 -43 9 -11 12 -37 16 -95 16 -74 0 -79 -2
-92 -25 -11 -20 -21 -25 -52 -25 -21 0 -38 5 -38 11 0 8 -5 8 -15 -1 -12 -10
-18 -10 -30 0 -8 7 -15 19 -15 26 0 17 -14 18 -39 2 -15 -9 -22 -8 -36 5 -9 9
-14 17 -10 17 3 0 3 5 -1 11 -5 8 -8 8 -13 0 -8 -12 -81 -3 -81 10 0 5 -10 9
-23 9 -12 0 -39 9 -60 20 -27 15 -51 19 -85 17 -26 -3 -35 -2 -19 0 15 2 27
11 27 19 0 17 8 17 40 -1 33 -19 40 -18 40 1 0 14 9 16 58 12 46 -5 118 0 175
11 4 0 7 -3 7 -9z"/>
<path d="M830 8199 c0 -7 12 -10 29 -7 19 3 27 0 24 -8 -2 -6 9 -14 28 -18 38
-7 63 8 30 19 -12 3 -19 11 -16 16 4 5 -16 9 -44 9 -31 0 -51 -4 -51 -11z"/>
<path d="M995 8170 c3 -5 10 -10 16 -10 5 0 9 5 9 10 0 6 -7 10 -16 10 -8 0
-12 -4 -9 -10z"/>
<path d="M1040 8164 c0 -8 5 -12 10 -9 6 4 8 11 5 16 -9 14 -15 11 -15 -7z"/>
<path d="M1148 8153 c7 -3 16 -2 19 1 4 3 -2 6 -13 5 -11 0 -14 -3 -6 -6z"/>
<path d="M72 8053 c-10 -4 -10 -8 -1 -19 9 -11 15 -11 25 -3 23 19 6 34 -24
22z"/>
<path d="M157 8024 c5 -15 34 -34 51 -34 5 0 19 9 31 19 l22 19 -23 1 c-13 0
-37 2 -55 5 -24 3 -30 1 -26 -10z"/>
<path d="M348 8003 c6 -2 18 -2 25 0 6 3 1 5 -13 5 -14 0 -19 -2 -12 -5z"/>
<path d="M415 8000 c4 -6 -8 -10 -27 -11 -30 -1 -31 -2 -8 -8 30 -9 47 -4 54
15 3 8 -1 14 -10 14 -8 0 -12 -4 -9 -10z"/>
<path d="M515 7960 c3 -5 15 -10 26 -10 10 0 19 5 19 10 0 6 -12 10 -26 10
-14 0 -23 -4 -19 -10z"/>
<path d="M0 7811 c0 -35 3 -39 33 -46 17 -4 53 -7 80 -6 26 2 47 -2 47 -7 0
-18 53 -29 88 -20 22 6 44 6 64 -1 17 -6 56 -11 87 -11 31 -1 67 -7 81 -15 14
-8 45 -14 69 -15 29 0 48 -6 56 -17 9 -12 28 -16 71 -17 42 -1 64 -6 75 -18 9
-10 30 -18 47 -18 18 0 49 -7 71 -16 21 -8 62 -16 90 -17 28 -1 51 -5 51 -9 0
-5 7 -8 16 -8 20 0 14 32 -7 35 -9 2 -32 10 -50 18 -19 9 -45 19 -59 23 -14 3
-27 10 -30 15 -3 4 -25 9 -48 10 -24 2 -46 7 -48 11 -3 4 -22 8 -42 8 -21 0
-47 7 -58 15 -19 12 -39 19 -126 40 -9 2 -25 8 -35 13 -10 6 -66 13 -123 16
-58 3 -121 11 -140 17 -19 6 -51 15 -70 19 -19 4 -61 15 -93 24 -89 25 -97 23
-97 -23z"/>
<path d="M0 7660 c0 -21 45 -39 60 -24 13 13 -1 30 -32 38 -24 5 -28 3 -28
-14z"/>
<path d="M134 7614 c3 -9 6 -18 6 -20 0 -2 5 -4 10 -4 6 0 10 9 10 20 0 12 -7
20 -16 20 -11 0 -14 -5 -10 -16z"/>
<path d="M1055 7581 c-6 -11 4 -18 23 -15 6 1 17 2 23 3 5 0 7 6 4 11 -8 13
-42 13 -50 1z"/>
<path d="M1120 7576 c0 -9 18 -16 50 -20 61 -8 83 1 49 20 -33 18 -99 18 -99
0z"/>
<path d="M462 7561 c-11 -6 -10 -10 4 -15 20 -8 32 0 18 14 -5 5 -15 5 -22 1z"/>
<path d="M1440 7520 c0 -5 7 -10 16 -10 8 0 12 5 9 10 -3 6 -10 10 -16 10 -5
0 -9 -4 -9 -10z"/>
<path d="M1505 7510 c-14 -6 -3 -9 39 -9 33 -1 57 1 55 3 -11 9 -76 14 -94 6z"/>
<path d="M4346 7281 c-4 -6 -21 -15 -39 -20 -25 -7 -17 -8 31 -4 52 5 62 3 62
-10 0 -15 68 -43 78 -32 3 3 20 -4 37 -15 22 -14 55 -21 102 -24 38 -2 79 -8
91 -15 23 -12 62 -15 62 -3 -1 20 -20 30 -67 37 -31 4 -53 12 -53 19 0 8 -12
11 -35 8 -30 -4 -34 -2 -29 13 6 14 2 15 -29 10 -25 -5 -37 -3 -43 8 -5 8 -27
17 -49 20 -22 3 -56 9 -76 13 -23 4 -39 2 -43 -5z"/>
<path d="M480 7183 c0 -25 4 -31 15 -27 19 8 19 15 0 40 -14 18 -14 17 -15
-13z"/>
<path d="M160 7065 c0 -8 -7 -15 -15 -15 -8 0 -15 -9 -15 -19 0 -11 -11 -28
-25 -39 -30 -24 -31 -29 -7 -35 10 -3 6 -5 -11 -6 -15 0 -26 2 -25 7 1 4 -2
22 -6 40 -14 57 -56 29 -56 -37 0 -38 30 -59 85 -60 22 0 49 -2 60 -3 16 -2
20 2 18 25 -1 15 3 27 10 27 7 0 13 14 14 31 1 17 8 38 14 46 10 11 8 15 -9
20 -24 6 -29 19 -9 26 7 3 5 6 -5 6 -10 1 -18 -6 -18 -14z"/>
<path d="M10 6821 c0 -19 28 -31 51 -23 17 7 27 5 34 -4 5 -7 35 -15 65 -18
30 -3 94 -12 142 -19 49 -8 99 -12 112 -10 14 3 37 -2 53 -10 25 -14 197 -32
343 -36 25 -1 49 -6 54 -11 6 -6 42 -10 82 -10 51 0 75 -4 84 -15 15 -18 16
-18 -140 -4 -63 5 -144 12 -180 14 -36 2 -128 12 -205 21 -77 9 -169 18 -205
20 -36 2 -94 8 -130 13 -36 5 -89 13 -117 16 l-53 6 0 -3376 0 -3375 5718 1
c4896 0 5710 2 5667 14 -27 8 -72 14 -100 15 -27 0 -70 8 -95 17 -26 9 -82 17
-130 18 -47 2 -107 10 -135 19 -27 8 -61 17 -75 19 -14 2 -42 12 -63 21 -37
16 -158 37 -242 41 -22 1 -47 5 -55 8 -35 13 -327 69 -535 102 -122 19 -157
25 -164 30 -4 2 -31 6 -61 9 -46 5 -204 31 -322 53 -16 3 -28 9 -28 14 0 14
-38 11 -43 -3 -3 -10 -9 -10 -24 -1 -11 6 -53 15 -93 19 -40 4 -95 15 -122 25
-52 19 -61 17 -135 -17 -29 -14 -34 -14 -59 3 -46 30 -79 67 -76 86 4 21 -7
22 -36 1 -22 -15 -25 -15 -48 7 -19 17 -27 20 -36 11 -16 -16 -58 -15 -58 1 0
6 13 25 30 40 16 16 29 34 27 40 -1 7 4 11 11 9 6 -1 12 6 12 15 0 10 8 30 18
46 18 27 288 305 354 363 30 28 128 139 153 173 13 19 247 253 415 414 299
288 375 356 460 414 25 17 51 41 58 54 7 13 27 34 45 46 36 26 441 418 581
563 196 203 846 847 893 885 28 22 56 54 63 70 12 26 65 85 77 85 9 0 92 96
93 107 0 7 7 16 16 21 8 5 21 18 27 29 7 12 22 35 35 52 23 30 16 43 -10 19
-7 -7 -28 -14 -46 -16 -24 -1 -44 -13 -68 -39 -19 -19 -34 -40 -34 -45 0 -5
-5 -6 -11 -3 -12 8 -69 -14 -69 -26 0 -5 -7 -9 -15 -9 -9 0 -26 -10 -38 -23
-12 -12 -35 -29 -52 -37 -16 -8 -42 -26 -56 -40 -48 -47 -87 -80 -94 -80 -10
0 -66 -45 -138 -112 -99 -91 -105 -96 -111 -91 -6 7 -24 -8 -117 -97 -43 -41
-97 -91 -120 -110 -59 -49 -99 -92 -99 -107 0 -7 -4 -13 -8 -13 -9 0 -30 -21
-95 -92 -19 -21 -37 -38 -40 -38 -6 0 -42 -29 -105 -88 -25 -23 -49 -42 -53
-42 -4 0 -6 24 -6 54 1 36 6 52 14 49 8 -3 9 5 4 29 -14 63 4 193 30 219 10
10 21 30 25 44 4 15 13 25 25 25 18 0 26 6 107 80 21 19 49 44 62 54 16 12 20
21 12 24 -7 2 -12 11 -12 19 0 10 6 13 16 9 9 -4 34 6 60 24 25 16 49 30 53
30 8 0 23 26 25 42 2 16 146 146 146 132 0 -21 43 -17 63 6 9 11 23 20 32 20
8 0 24 10 36 22 15 16 23 19 26 11 10 -27 18 -11 18 35 0 56 -11 78 -30 62 -7
-6 -24 -12 -37 -14 -42 -4 -76 -28 -94 -66 -11 -21 -22 -36 -26 -34 -3 2 -20
-7 -36 -21 -16 -14 -37 -25 -45 -25 -8 0 -20 -7 -27 -15 -7 -8 -25 -15 -41
-15 -18 0 -34 -8 -41 -20 -7 -11 -20 -20 -30 -20 -9 0 -18 -3 -20 -7 -1 -5
-26 -27 -54 -50 -57 -47 -146 -93 -182 -93 -13 0 -51 -19 -85 -43 -61 -42 -90
-58 -272 -152 -49 -25 -95 -52 -101 -60 -6 -8 -14 -15 -18 -15 -6 0 -30 -15
-138 -87 -18 -12 -70 -43 -115 -69 -44 -26 -92 -57 -105 -69 -14 -13 -38 -30
-54 -38 -16 -9 -42 -28 -59 -42 -16 -15 -43 -36 -58 -48 -16 -12 -41 -34 -57
-48 -15 -14 -54 -43 -86 -65 -32 -21 -69 -51 -83 -65 -33 -34 -63 -49 -95 -49
-14 0 -26 -4 -26 -8 0 -5 -33 -26 -72 -47 -40 -20 -80 -43 -88 -50 -8 -7 -31
-20 -50 -29 -64 -30 -95 -49 -127 -77 -18 -15 -50 -33 -72 -40 -23 -7 -41 -19
-44 -30 -3 -11 -18 -20 -40 -24 -21 -4 -42 -17 -51 -29 -8 -13 -28 -29 -45
-36 -17 -7 -31 -16 -31 -21 0 -4 -13 -7 -30 -7 -31 1 -47 24 -41 61 3 20 -9
22 -28 5 -11 -11 -13 -10 -7 5 3 10 6 21 6 23 0 2 6 4 13 4 15 0 14 -5 21 163
3 70 7 131 11 136 3 5 0 11 -7 13 -7 3 -8 9 -2 19 10 16 12 35 18 199 3 63 6
117 6 120 1 3 2 35 2 73 -1 37 3 67 8 67 4 0 6 9 3 19 -4 16 -1 19 16 14 12
-3 21 -1 21 6 0 6 -5 11 -10 11 -23 0 -29 49 -16 129 8 46 9 84 4 87 -4 3 -5
11 -1 17 4 6 6 27 4 45 -2 27 1 35 19 39 15 4 18 8 10 13 -9 5 -12 43 -11 124
2 127 6 146 27 146 10 0 14 9 12 28 -3 23 -14 32 -78 63 -81 39 -255 73 -455
90 -55 4 -127 12 -160 18 -128 20 -283 40 -355 45 -41 3 -104 11 -140 20 -36
8 -110 17 -165 19 -55 2 -107 7 -115 10 -8 3 -24 8 -35 12 -11 3 -71 11 -133
16 -62 5 -121 13 -131 19 -11 5 -68 12 -127 15 -60 3 -120 10 -134 14 -14 5
-47 12 -75 15 -87 10 -128 16 -205 30 -41 8 -84 14 -95 14 -11 0 -38 3 -60 7
-22 4 -62 10 -90 14 -128 19 -215 33 -266 41 -30 6 -71 10 -91 10 -19 0 -66 6
-104 14 -38 8 -107 19 -154 26 -47 6 -110 16 -140 22 -30 6 -82 14 -115 18
-134 17 -352 50 -366 55 -8 2 -36 7 -64 9 -51 4 -198 24 -365 50 -52 9 -176
27 -275 41 -99 14 -205 30 -235 35 -30 6 -116 19 -190 30 -150 23 -310 59
-310 69 0 17 93 32 475 76 66 8 158 21 205 29 47 8 111 17 143 21 31 4 57 11
57 16 0 5 -4 9 -10 9 -5 0 -10 5 -10 11 0 7 11 9 28 6 15 -3 34 -2 42 3 11 7
8 11 -15 20 -42 16 -69 16 -173 -3 -50 -9 -115 -17 -142 -17 -28 0 -50 -4 -50
-10 0 -5 -11 -10 -25 -10 -14 0 -28 -7 -31 -15 -5 -11 -18 -13 -58 -10 -38 4
-61 0 -87 -13 -22 -11 -43 -15 -55 -11 -28 11 -66 11 -59 -1 7 -12 -79 -8
-108 5 -13 5 -16 4 -11 -8 4 -11 -5 -17 -35 -22 -31 -5 -41 -11 -41 -26 0 -15
-7 -19 -38 -19 -21 0 -46 -6 -57 -14 -29 -20 -93 -28 -253 -32 -181 -5 -236
-10 -261 -26 -16 -10 -23 -10 -33 0 -6 6 -26 12 -42 12 -27 1 -28 2 -13 11 10
6 35 8 58 4 22 -4 45 -3 52 3 14 10 33 13 93 12 25 0 48 6 57 15 9 8 27 15 40
15 14 0 33 3 41 6 15 6 15 8 -1 20 -10 7 -13 14 -6 14 6 0 18 3 27 6 11 4 16
0 16 -14 0 -21 18 -32 54 -32 34 0 38 10 15 38 l-20 26 21 8 c12 4 27 5 32 1
7 -3 8 -1 4 5 -9 14 -114 15 -206 2 -36 -5 -105 -11 -155 -15 -111 -7 -248
-23 -295 -34 -54 -14 -208 -22 -214 -12 -3 5 -27 12 -53 16 -76 10 -188 47
-172 55 8 4 52 10 99 14 47 3 146 13 220 21 194 21 448 43 650 55 286 17 450
29 530 39 41 5 147 12 235 16 88 3 185 8 215 10 90 7 451 24 655 30 221 6 448
23 480 35 12 4 55 8 97 9 42 0 86 5 99 9 13 5 53 9 89 10 70 1 140 9 147 16 6
6 -86 18 -95 12 -4 -2 -203 -7 -442 -11 -239 -3 -511 -8 -605 -11 -93 -3 -264
-7 -380 -9 -1038 -15 -1555 -31 -1586 -51 -6 -3 -117 -8 -247 -10 -130 -2
-300 -6 -377 -9 -115 -4 -136 -3 -119 7 12 7 19 19 17 26 -6 14 33 17 42 2 3
-5 14 -10 23 -10 13 0 14 2 3 9 -21 13 4 23 42 16 26 -5 29 -4 15 5 -40 25
-11 63 42 58 33 -3 54 2 45 11 -6 6 -29 6 -59 0 -53 -10 -93 -3 -115 19 -13
12 -16 12 -26 -2 -18 -23 -66 -21 -72 4 -3 12 -14 20 -25 20 -19 0 -19 2 -6
23 11 15 13 29 6 46 -5 16 -4 28 4 38 10 12 9 18 -4 27 -15 11 -15 13 3 24 26
16 28 16 24 -13 -2 -26 10 -35 18 -12 3 8 10 6 21 -8 17 -21 16 -22 22 41 2
27 -1 31 -17 27 -10 -3 -19 0 -19 6 0 16 49 14 66 -3 18 -18 55 -10 47 11 -4
11 2 14 28 11 21 -2 33 -8 31 -15 -1 -7 2 -13 8 -13 5 0 10 7 10 15 0 12 14
15 64 15 64 0 97 14 53 22 -30 6 -91 3 -105 -6 -15 -9 -62 3 -62 16 0 6 7 7
15 4 16 -6 19 -2 30 47 4 21 2 28 -7 24 -7 -2 -12 -10 -10 -17 4 -20 -17 -38
-38 -33 -14 4 -20 0 -20 -11 0 -19 -19 -21 -45 -3 -11 8 -33 13 -50 13 -25 -1
-30 -5 -28 -23 2 -16 -2 -21 -12 -16 -11 4 -13 12 -8 27 4 11 7 33 8 49 0 15
5 27 10 27 6 0 4 4 -4 9 -16 10 -6 31 15 31 8 0 14 -8 14 -19 0 -14 7 -18 29
-17 37 2 47 11 33 29 -18 21 -5 26 49 20 46 -5 49 -4 49 17 0 21 -3 22 -55 15
-37 -4 -55 -3 -55 4 0 6 12 11 28 11 15 0 34 5 42 10 11 7 4 10 -25 10 -40 0
-75 -24 -75 -52 0 -9 -3 -9 -12 0 -10 10 -10 15 0 21 8 5 19 19 26 32 8 16 23
26 45 29 20 3 39 13 45 25 6 11 19 33 30 48 18 28 18 29 0 27 -35 -4 -54 0
-54 11 0 5 8 9 18 8 34 -3 48 2 27 10 -11 5 -31 4 -44 -1 -13 -5 -25 -7 -27
-6 -5 6 37 88 45 88 5 0 11 7 14 14 4 10 1 13 -9 9 -8 -3 -23 2 -33 11 -20 18
-48 13 -68 -13 -12 -14 -15 -14 -28 4 -14 18 -14 20 5 27 26 10 28 63 3 77
-10 5 -14 13 -9 18 5 4 11 2 13 -4 3 -7 11 -13 19 -13 9 0 12 5 9 11 -4 5 5
21 19 34 14 13 28 20 31 15 3 -5 18 -9 33 -9 15 0 36 -2 46 -3 36 -6 27 20 -9
26 -61 12 -28 27 45 21 43 -4 71 -2 75 5 3 5 1 10 -4 10 -6 0 -11 5 -11 10 0
7 6 7 20 0 11 -6 20 -17 20 -25 0 -8 7 -15 15 -15 8 0 15 4 15 9 0 6 16 7 35
4 47 -8 46 11 -2 32 -21 9 -50 23 -65 31 -21 11 -27 11 -31 2 -4 -10 -8 -10
-16 2 -12 18 -5 31 13 24 8 -3 17 -1 21 5 3 6 33 11 65 11 32 0 62 5 65 10 4
6 -5 10 -19 10 -14 0 -26 5 -26 11 0 6 7 8 16 5 9 -3 28 -6 42 -7 15 0 21 -3
15 -6 -23 -9 -14 -22 20 -31 17 -5 31 -14 29 -21 -1 -6 2 -11 8 -11 5 0 10 4
10 9 0 5 3 16 6 24 3 10 -3 18 -18 23 -22 8 -22 8 7 15 27 6 25 7 -15 8 -62 2
-120 12 -120 21 0 13 69 21 88 11 12 -6 30 -7 48 -1 16 4 23 9 15 9 -8 1 -12
3 -9 6 3 3 25 -1 49 -9 53 -17 129 -17 129 1 0 8 14 13 39 13 22 0 43 5 46 10
4 6 -12 10 -39 10 -25 0 -46 -4 -46 -10 0 -5 -11 -10 -25 -10 -25 0 -46 26
-38 48 3 6 -1 12 -9 12 -10 0 -9 3 2 10 23 15 30 12 30 -10 0 -22 35 -29 42
-8 3 9 12 8 32 -6 20 -12 38 -16 61 -12 30 6 33 4 28 -14 -3 -11 -1 -20 5 -20
19 0 21 16 7 43 -12 24 -12 27 2 27 9 0 13 3 9 7 -4 4 -17 8 -29 8 -12 0 -21
5 -20 12 3 15 -33 27 -69 24 -51 -5 -29 16 23 22 59 7 71 14 46 28 -9 6 -17
18 -17 28 0 23 -9 31 -27 24 -11 -5 -12 -7 -2 -14 9 -5 5 -10 -14 -14 -15 -4
-24 -12 -20 -18 4 -7 -5 -7 -28 -2 -19 5 -61 9 -94 10 -33 1 -82 5 -110 10
-73 11 -29 25 60 18 85 -6 77 -6 93 -4 7 0 11 5 8 10 -7 10 67 21 147 21 36 0
57 4 51 9 -8 8 -130 19 -394 36 -125 8 -259 23 -269 30 -5 3 -12 1 -16 -5 -3
-5 -11 -10 -16 -10 -6 0 -8 4 -5 9 10 15 -37 -1 -57 -20 -21 -20 -38 -16 -82
16 -16 12 -43 29 -60 37 -31 16 -159 48 -185 46 -38 -3 -70 3 -70 12 0 6 13
10 28 10 15 0 33 5 39 11 9 9 16 7 29 -5 11 -11 25 -15 38 -11 12 3 58 9 103
11 64 4 87 2 106 -10 16 -11 37 -15 62 -11 22 2 60 -2 85 -9 39 -12 49 -12 64
0 11 7 23 11 27 8 5 -3 9 -1 9 5 0 12 -25 17 -170 35 -235 29 -239 29 -246 12
-9 -22 -24 -20 -24 3 0 22 -9 24 -205 41 -66 6 -167 17 -225 25 -88 12 -300
32 -525 49 -121 10 -308 27 -396 36 -53 6 -132 13 -175 15 -44 3 -116 7 -161
10 -46 2 -83 1 -83 -4z m1140 -171 c0 -5 -16 -10 -36 -10 -21 0 -33 4 -29 10
3 6 19 10 36 10 16 0 29 -4 29 -10z m299 -19 c31 -5 68 -5 84 0 29 8 67 -3 67
-20 0 -11 -59 -23 -73 -14 -11 7 -141 22 -252 29 -38 2 -74 9 -79 14 -12 12
167 6 253 -9z m1259 -259 c2 -7 -3 -12 -12 -12 -9 0 -16 7 -16 16 0 17 22 14
28 -4z m-308 -18 c0 -2 -12 -4 -27 -4 -21 0 -24 3 -14 9 13 8 41 5 41 -5z
m160 -19 c0 -8 -6 -15 -14 -15 -20 0 -29 17 -14 23 22 9 28 7 28 -8z m60 9 c0
-3 -5 -14 -10 -25 -15 -27 -35 -24 -36 6 -2 20 3 25 22 25 13 0 24 -3 24 -6z
m-142 -26 c5 -8 6 -22 1 -33 -7 -19 -8 -19 -8 3 -1 12 -5 22 -11 22 -5 0 -10
5 -10 10 0 14 16 13 28 -2z m182 -12 c0 -3 -4 -8 -10 -11 -5 -3 -10 -1 -10 4
0 6 5 11 10 11 6 0 10 -2 10 -4z m-260 -16 c0 -5 -4 -10 -10 -10 -5 0 -10 5
-10 10 0 6 5 10 10 10 6 0 10 -4 10 -10z m134 -29 c6 -10 -16 -21 -41 -21 -13
0 -13 3 -3 15 14 17 36 20 44 6z m-234 -5 c0 -3 -4 -8 -10 -11 -5 -3 -10 -1
-10 4 0 6 5 11 10 11 6 0 10 -2 10 -4z m101 -13 c0 -5 2 -18 5 -30 3 -18 0
-21 -16 -15 -19 7 -22 16 -13 40 6 13 23 17 24 5z m159 -23 c0 -5 -6 -10 -14
-10 -8 0 -18 5 -21 10 -3 6 3 10 14 10 12 0 21 -4 21 -10z m-520 -20 c9 -16 8
-20 -5 -20 -8 0 -15 9 -15 20 0 11 2 20 5 20 2 0 9 -9 15 -20z m93 -17 c-7 -2
-19 -2 -25 0 -7 3 -2 5 12 5 14 0 19 -2 13 -5z m59 -15 c-9 -9 -15 -9 -24 0
-9 9 -7 12 12 12 19 0 21 -3 12 -12z m48 2 c0 -5 -2 -10 -4 -10 -3 0 -8 5 -11
10 -3 6 -1 10 4 10 6 0 11 -4 11 -10z m37 4 c-3 -3 -12 -4 -19 -1 -8 3 -5 6 6
6 11 1 17 -2 13 -5z m-7 -35 c0 -11 -27 -12 -34 -1 -2 4 4 9 15 9 10 1 19 -2
19 -8z m-210 -24 c-7 -8 -16 -15 -21 -15 -5 0 -9 7 -9 15 0 9 9 15 21 15 18 0
19 -2 9 -15z m116 -21 c2 -15 -3 -27 -13 -31 -20 -8 -37 19 -18 30 8 4 15 15
15 24 0 25 13 7 16 -23z m-91 -33 c-2 -5 10 -12 28 -16 23 -5 27 -9 14 -12
-10 -3 -31 0 -47 6 -18 6 -32 6 -35 0 -8 -12 -25 -12 -25 0 0 5 14 12 30 16
18 4 27 11 24 17 -4 7 -2 8 5 4 6 -4 9 -11 6 -15z m-25 -45 c0 -15 -37 -32
-48 -22 -6 6 27 35 41 36 4 0 7 -6 7 -14z m-59 -249 c-10 -9 -11 -8 -5 6 3 10
9 15 12 12 3 -3 0 -11 -7 -18z m-28 -6 c-2 -6 5 -11 15 -11 15 0 15 -2 2 -11
-11 -8 -12 -12 -2 -16 23 -9 14 -53 -14 -63 -14 -6 -27 -10 -28 -10 -6 0 1 56
8 68 4 6 2 20 -3 30 -6 11 -7 22 -4 26 10 10 28 0 26 -13z m69 -97 c3 -3 4
-14 1 -25 -4 -14 -13 -19 -37 -18 -30 2 -30 2 -3 6 28 4 38 23 12 23 -8 0 -15
5 -15 10 0 11 33 14 42 4z m-3 -69 c-3 -2 -18 -5 -34 -8 -22 -2 -31 -10 -33
-25 -2 -16 -10 -22 -28 -22 -14 0 -24 6 -24 14 0 8 6 13 13 12 6 0 13 3 14 8
1 5 6 12 13 16 12 7 86 12 79 5z m-102 -651 c-3 -3 -12 -4 -19 -1 -8 3 -5 6 6
6 11 1 17 -2 13 -5z m1983 -244 c0 -5 -10 -10 -22 -9 -22 0 -22 1 -3 9 11 5
21 9 23 9 1 1 2 -3 2 -9z m-834 -29 c-3 -5 -15 -11 -26 -14 -17 -4 -19 -3 -9
9 12 15 44 20 35 5z m619 -1 c-45 -11 -103 -12 -86 -1 8 5 37 9 65 9 43 -1 46
-2 21 -8z m-542 -87 c-7 -2 -21 -2 -30 0 -10 3 -4 5 12 5 17 0 24 -2 18 -5z
m-393 -7 c0 -8 -61 -12 -66 -4 -3 4 11 8 30 8 20 0 36 -2 36 -4z m730 -85 c0
-12 -9 -20 -25 -24 -20 -3 -25 -1 -23 12 2 9 8 16 15 16 6 0 15 3 19 8 11 11
14 9 14 -12z m-60 -32 c0 -22 -27 -25 -52 -5 -24 18 -23 24 5 28 32 6 47 -2
47 -23z m-145 1 c-3 -5 -14 -10 -23 -10 -15 0 -15 2 -2 10 20 13 33 13 25 0z
m62 4 c-3 -3 -12 -4 -19 -1 -8 3 -5 6 6 6 11 1 17 -2 13 -5z m-118 -18 c-12
-10 -60 -16 -54 -6 3 5 18 10 32 10 15 0 24 -2 22 -4z m176 -38 c35 -16 31
-28 -10 -28 -33 0 -46 16 -28 33 8 9 8 9 38 -5z m-71 -4 c9 -3 16 -12 16 -18
0 -17 -58 -58 -65 -46 -3 6 -19 10 -36 10 -18 0 -29 5 -29 14 0 8 -6 17 -12
19 -7 3 10 6 39 6 28 1 55 6 58 11 7 12 8 12 29 4z m-724 -24 c0 -5 -7 -10
-16 -10 -8 0 -12 5 -9 10 3 6 10 10 16 10 5 0 9 -4 9 -10z m-60 -10 c0 -5 -4
-10 -10 -10 -5 0 -10 5 -10 10 0 6 5 10 10 10 6 0 10 -4 10 -10z m220 -60 c0
-5 -7 -7 -15 -4 -8 4 -15 8 -15 10 0 2 7 4 15 4 8 0 15 -4 15 -10z m247 4 c-3
-3 -12 -4 -19 -1 -8 3 -5 6 6 6 11 1 17 -2 13 -5z m310 -10 c-3 -3 -12 -4 -19
-1 -8 3 -5 6 6 6 11 1 17 -2 13 -5z m-394 -21 c-13 -2 -33 -2 -45 0 -13 2 -3
4 22 4 25 0 35 -2 23 -4z m220 -10 c-7 -2 -21 -2 -30 0 -10 3 -4 5 12 5 17 0
24 -2 18 -5z m-115 -15 c-3 -8 -33 -16 -73 -21 -38 -4 -74 -12 -81 -18 -7 -5
-23 -7 -36 -4 -13 3 -35 2 -48 -4 -22 -9 -19 -10 23 -10 26 -1 47 -5 47 -11 0
-5 -13 -10 -30 -10 -33 0 -32 0 -80 -12 -73 -20 -173 -13 -110 7 23 7 26 21 8
28 -22 8 -2 17 38 19 21 0 44 4 49 8 19 15 85 23 85 11 0 -9 5 -9 21 0 19 9
55 15 177 28 8 0 12 -5 10 -11z m-467 -98 c24 0 38 -4 34 -10 -9 -14 -100 -7
-99 8 3 33 5 36 15 20 7 -13 22 -18 50 -18z m79 -51 l25 -1 -25 -7 c-40 -12
-156 -23 -147 -14 14 14 81 32 102 27 11 -2 31 -4 45 -5z m105 -229 c-28 -12
-57 -12 -50 0 3 6 21 10 38 9 27 0 29 -2 12 -9z m-120 -10 c-3 -5 -13 -10 -21
-10 -8 0 -14 5 -14 10 0 6 9 10 21 10 11 0 17 -4 14 -10z m-100 -10 c3 -5 -3
-10 -14 -10 -12 0 -21 5 -21 10 0 6 6 10 14 10 8 0 18 -4 21 -10z m42 -6 c-3
-3 -12 -4 -19 -1 -8 3 -5 6 6 6 11 1 17 -2 13 -5z m3653 -364 c0 -5 -2 -10 -4
-10 -3 0 -8 5 -11 10 -3 6 -1 10 4 10 6 0 11 -4 11 -10z m520 -4 c0 -2 -9 -6
-20 -9 -11 -3 -20 -1 -20 4 0 5 9 9 20 9 11 0 20 -2 20 -4z m185 -6 c3 -5 1
-10 -4 -10 -6 0 -11 5 -11 10 0 6 2 10 4 10 3 0 8 -4 11 -10z m145 -20 c0 -5
-2 -10 -4 -10 -3 0 -8 5 -11 10 -3 6 -1 10 4 10 6 0 11 -4 11 -10z m-655 -10
c3 -5 -1 -10 -9 -10 -8 0 -18 5 -21 10 -3 6 1 10 9 10 8 0 18 -4 21 -10z m415
-114 c0 -3 -4 -8 -10 -11 -5 -3 -10 -1 -10 4 0 6 5 11 10 11 6 0 10 -2 10 -4z
m-2310 -42 c0 -8 -5 -12 -10 -9 -6 4 -8 11 -5 16 9 14 15 11 15 -7z m-170 -44
c0 -5 -5 -10 -11 -10 -5 0 -7 5 -4 10 3 6 8 10 11 10 2 0 4 -4 4 -10z m238
-43 c-7 -7 -22 -16 -33 -20 -16 -6 -14 -2 8 18 15 14 28 31 28 38 1 7 3 4 6
-5 2 -10 -1 -24 -9 -31z m1957 23 c-3 -5 -11 -10 -16 -10 -6 0 -7 5 -4 10 3 6
11 10 16 10 6 0 7 -4 4 -10z m660 -8 c-3 -3 -11 0 -18 7 -9 10 -8 11 6 5 10
-3 15 -9 12 -12z m-2925 -22 c0 -5 -4 -10 -10 -10 -5 0 -10 5 -10 10 0 6 5 10
10 10 6 0 10 -4 10 -10z m4255 -10 c-3 -5 -12 -7 -20 -3 -21 7 -19 13 6 13 11
0 18 -4 14 -10z m-4195 -26 c0 -2 -9 -4 -20 -4 -11 0 -20 4 -20 9 0 5 9 7 20
4 11 -3 20 -7 20 -9z m340 12 c0 -3 -4 -8 -10 -11 -5 -3 -10 -1 -10 4 0 6 5
11 10 11 6 0 10 -2 10 -4z m1744 -38 c-3 -5 -12 -4 -20 3 -7 6 -11 15 -8 21 3
5 12 4 20 -3 7 -6 11 -15 8 -21z m1673 16 c-3 -3 -12 -4 -19 -1 -8 3 -5 6 6 6
11 1 17 -2 13 -5z m33 2 c0 -3 -4 -8 -10 -11 -5 -3 -10 -1 -10 4 0 6 5 11 10
11 6 0 10 -2 10 -4z m-100 -21 c0 -8 -4 -15 -9 -15 -5 0 -16 -3 -25 -6 -10 -4
-16 -1 -16 9 0 15 14 25 38 26 6 1 12 -6 12 -14z m-3210 1 c0 -9 -30 -14 -35
-6 -4 6 3 10 14 10 12 0 21 -2 21 -4z m740 -6 c0 -5 -2 -10 -4 -10 -3 0 -8 5
-11 10 -3 6 -1 10 4 10 6 0 11 -4 11 -10z m265 0 c3 -5 2 -10 -4 -10 -5 0 -13
5 -16 10 -3 6 -2 10 4 10 5 0 13 -4 16 -10z m-858 -22 c-3 -8 -6 -5 -6 6 -1
11 2 17 5 13 3 -3 4 -12 1 -19z m393 2 c0 -5 -4 -10 -10 -10 -5 0 -10 5 -10
10 0 6 5 10 10 10 6 0 10 -4 10 -10z m1097 -17 c-3 -3 -11 -2 -17 2 -9 6 -9
10 1 16 14 8 27 -7 16 -18z m333 7 c0 -5 -7 -7 -15 -4 -8 4 -12 10 -9 15 6 11
24 2 24 -11z m620 10 c0 -5 -4 -10 -10 -10 -5 0 -10 5 -10 10 0 6 5 10 10 10
6 0 10 -4 10 -10z m-251 -3 c-2 -1 -13 -9 -24 -17 -19 -14 -19 -14 -6 3 7 9
18 17 24 17 6 0 8 -1 6 -3z m-2924 -17 c3 -5 1 -10 -4 -10 -6 0 -11 5 -11 10
0 6 2 10 4 10 3 0 8 -4 11 -10z m1070 -10 c-3 -5 -10 -10 -16 -10 -5 0 -9 5
-9 10 0 6 7 10 16 10 8 0 12 -4 9 -10z m155 0 c0 -5 -5 -10 -11 -10 -5 0 -7 5
-4 10 3 6 8 10 11 10 2 0 4 -4 4 -10z m840 -11 c0 -11 -27 -12 -34 0 -3 4 -3
11 0 14 8 8 34 -3 34 -14z m440 11 c0 -5 -7 -10 -16 -10 -8 0 -12 5 -9 10 3 6
10 10 16 10 5 0 9 -4 9 -10z m-2130 -4 c0 -3 -4 -8 -10 -11 -5 -3 -10 -1 -10
4 0 6 5 11 10 11 6 0 10 -2 10 -4z m150 0 c0 -2 -9 -6 -20 -9 -11 -3 -20 -1
-20 4 0 5 9 9 20 9 11 0 20 -2 20 -4z m817 -12 c-3 -3 -12 -4 -19 -1 -8 3 -5
6 6 6 11 1 17 -2 13 -5z m1133 -15 c0 -6 -4 -7 -10 -4 -5 3 -10 11 -10 16 0 6
5 7 10 4 6 -3 10 -11 10 -16z m-2371 -20 c-19 -11 -24 -3 -8 14 8 9 16 11 18
5 2 -6 -3 -14 -10 -19z m1756 21 c3 -5 1 -10 -4 -10 -6 0 -11 5 -11 10 0 6 2
10 4 10 3 0 8 -4 11 -10z m-1195 -25 c0 -9 -9 -15 -21 -15 -18 0 -19 2 -9 15
7 8 16 15 21 15 5 0 9 -7 9 -15z m360 5 c0 -5 -4 -10 -10 -10 -5 0 -10 5 -10
10 0 6 5 10 10 10 6 0 10 -4 10 -10z m1420 -10 c0 -5 -10 -10 -22 -10 -19 0
-20 2 -8 10 19 13 30 13 30 0z m-1976 -15 c3 -9 -1 -18 -10 -22 -19 -7 -28 2
-21 22 8 19 23 19 31 0z m715 -10 c-18 -18 -36 -23 -40 -11 -2 5 5 10 16 12
11 2 21 8 23 14 2 6 7 9 10 5 3 -3 -1 -12 -9 -20z m57 -2 c-10 -10 -19 5 -10
18 6 11 8 11 12 0 2 -7 1 -15 -2 -18z m1361 -13 l28 -8 -32 -1 c-18 -1 -33 4
-33 10 0 7 -10 9 -27 4 -27 -6 -27 -6 -8 9 13 10 24 11 32 4 6 -5 24 -13 40
-18z m-222 10 c3 -5 -3 -10 -14 -10 -12 0 -21 5 -21 10 0 6 6 10 14 10 8 0 18
-4 21 -10z m-590 -7 c-11 -3 -24 -9 -29 -14 -6 -5 -19 -9 -30 -9 -12 0 -16 4
-10 9 11 11 41 19 69 19 l20 0 -20 -5z m955 -3 c0 -5 -7 -10 -16 -10 -8 0 -12
-4 -9 -10 7 -11 3 -12 -19 -4 -12 5 -13 9 -3 20 14 15 47 19 47 4z m115 0 c-3
-5 -11 -10 -16 -10 -6 0 -7 5 -4 10 3 6 11 10 16 10 6 0 7 -4 4 -10z m-2528
-6 c-3 -3 -12 -4 -19 -1 -8 3 -5 6 6 6 11 1 17 -2 13 -5z m38 -4 c3 -5 1 -10
-4 -10 -6 0 -11 5 -11 10 0 6 2 10 4 10 3 0 8 -4 11 -10z m245 0 c-19 -13 -30
-13 -30 0 0 6 10 10 23 10 18 0 19 -2 7 -10z m2330 0 c0 -5 -4 -10 -10 -10 -5
0 -10 5 -10 10 0 6 5 10 10 10 6 0 10 -4 10 -10z m-436 -15 c-6 -16 -34 -21
-34 -7 0 13 11 22 26 22 8 0 11 -6 8 -15z m1741 5 c3 -6 -1 -7 -9 -4 -18 7
-21 14 -7 14 6 0 13 -4 16 -10z m-3310 -17 c16 -21 2 -53 -22 -53 -12 0 -13 3
-4 14 13 16 -2 32 -19 21 -5 -3 -10 -1 -10 4 0 6 7 11 15 11 8 0 15 5 15 10 0
15 11 12 25 -7z m58 -11 c-3 -12 -9 -22 -14 -22 -12 0 -11 7 3 30 15 24 19 21
11 -8z m104 6 c-3 -8 -6 -5 -6 6 -1 11 2 17 5 13 3 -3 4 -12 1 -19z m223 14
c0 -4 -10 -13 -22 -21 -23 -14 -23 -14 -4 8 20 22 26 25 26 13z m1004 -1 c3
-4 -1 -17 -9 -27 -11 -15 -16 -16 -26 -7 -10 10 -9 15 1 28 14 17 26 19 34 6z
m557 -10 c-9 -6 -4 -10 16 -14 15 -3 30 -1 31 4 7 18 30 -11 25 -31 -5 -18 -5
-18 -26 1 -26 24 -47 25 -47 2 0 -12 -5 -9 -15 11 -19 35 -19 34 3 38 22 6 30
-1 13 -11z m566 13 c-3 -3 -12 -4 -19 -1 -8 3 -5 6 6 6 11 1 17 -2 13 -5z
m730 0 c-3 -3 -12 -4 -19 -1 -8 3 -5 6 6 6 11 1 17 -2 13 -5z m-5157 -19 c0
-8 4 -15 10 -15 12 0 34 -40 26 -47 -3 -3 -12 -1 -19 5 -8 7 -17 9 -20 5 -4
-3 -10 3 -14 13 -3 10 -11 22 -16 25 -5 4 -6 12 -3 18 10 16 36 13 36 -4z
m1720 10 c0 -2 -11 -16 -25 -30 -27 -26 -45 -32 -45 -15 0 6 6 10 13 10 7 0
18 9 25 20 11 18 32 28 32 15z m609 -16 c-16 -10 -23 -4 -14 10 3 6 11 8 17 5
6 -4 5 -9 -3 -15z m2383 -1 c-6 -6 -15 -8 -19 -4 -4 4 -1 11 7 16 8 5 17 7 19
4 3 -2 -1 -10 -7 -16z m-4616 -43 c-6 -18 3 -24 43 -27 17 -1 31 -5 31 -9 0
-8 -67 -20 -90 -16 -8 1 -16 -2 -18 -8 -2 -5 -12 -15 -23 -21 -19 -10 -19 -11
6 -24 24 -13 28 -12 37 4 8 14 17 16 45 11 24 -4 38 -2 44 6 5 9 13 10 31 2
21 -9 18 -11 -29 -18 -29 -4 -53 -10 -53 -14 0 -4 -22 -13 -50 -20 -27 -7 -50
-15 -50 -18 0 -8 33 -32 45 -33 6 0 4 4 -4 9 -11 7 -4 11 25 17 21 4 44 13 49
20 6 8 40 15 85 18 41 2 76 9 78 15 5 15 35 14 51 -1 11 -11 13 -10 8 5 -6 15
-1 17 41 13 26 -2 52 -4 59 -5 7 -1 10 -8 6 -17 -5 -14 -7 -14 -14 -1 -6 9
-17 13 -29 10 -24 -6 -27 -23 -4 -23 8 0 12 -4 9 -10 -3 -5 -17 -10 -30 -10
-13 0 -36 -7 -52 -15 -15 -8 -41 -17 -56 -20 -15 -3 -25 -10 -22 -15 8 -14 52
-13 57 1 2 6 21 13 43 15 21 2 41 7 44 11 3 4 21 9 40 10 18 1 39 7 46 13 7 6
27 7 45 3 26 -5 36 -2 47 13 12 16 15 17 23 4 5 -8 7 -23 4 -32 -3 -12 0 -18
9 -18 10 0 13 7 10 18 -3 15 2 18 32 18 33 0 36 -2 32 -23 -3 -17 0 -23 14
-23 10 0 21 -4 24 -10 9 -15 25 -12 25 4 0 15 103 38 127 29 13 -5 18 -54 7
-66 -3 -3 -19 -1 -35 5 -30 10 -65 -4 -54 -22 3 -5 -3 -11 -12 -14 -10 -2 5
-2 32 1 64 7 98 20 90 34 -7 11 22 49 37 49 4 0 8 -10 8 -21 0 -19 4 -20 33
-15 18 3 36 3 40 0 9 -9 87 -11 87 -1 0 4 -19 7 -42 7 -31 1 -39 3 -27 10 18
10 136 1 119 -10 -8 -5 -7 -10 2 -17 8 -7 31 -8 63 -3 71 12 72 12 78 -9 3
-14 11 -17 31 -14 17 4 26 1 26 -7 0 -8 11 -10 33 -7 17 3 41 2 52 -2 17 -7
16 -10 -15 -24 -19 -8 -48 -18 -63 -21 -16 -4 -27 -12 -25 -18 7 -19 24 -20
41 -3 18 18 39 19 54 4 17 -17 37 -1 22 17 -9 12 -6 14 22 14 25 0 30 -3 19
-10 -12 -7 -12 -12 -2 -22 10 -10 16 -7 30 12 9 14 16 29 14 34 -2 5 4 6 13 2
9 -3 30 -6 47 -6 25 0 28 -3 19 -14 -15 -18 -3 -46 21 -46 10 0 17 4 14 8 -3
5 0 9 7 9 7 0 29 3 50 7 27 5 37 4 32 -3 -4 -7 3 -7 20 1 22 10 28 9 35 -3 7
-10 4 -15 -13 -18 -12 -1 -25 -8 -29 -15 -5 -8 -8 -7 -8 3 0 11 -3 11 -15 1
-27 -22 -16 -29 40 -23 46 5 55 3 55 -10 0 -9 4 -19 10 -22 6 -4 9 4 7 17 -2
21 1 23 46 21 32 -1 53 -8 61 -18 7 -9 21 -15 31 -13 11 1 20 -3 21 -9 3 -28
5 -27 19 6 12 25 20 32 35 28 10 -3 21 0 24 7 3 7 9 5 16 -6 11 -18 36 -23 64
-12 15 6 15 8 -1 20 -17 12 -17 13 5 14 12 0 22 -6 22 -14 0 -18 20 -25 53
-19 19 4 27 1 27 -8 0 -24 -17 -42 -34 -36 -8 3 -18 2 -21 -4 -20 -32 86 -48
110 -16 13 18 31 24 20 7 -6 -9 -2 -12 28 -14 6 -1 14 -4 17 -7 3 -3 33 -3 67
0 35 4 61 3 60 -2 -1 -5 4 -12 11 -14 6 -3 12 2 12 11 0 9 4 16 9 16 5 0 7 -9
4 -20 -5 -17 0 -20 33 -20 39 -1 39 -1 14 -15 -16 -9 -20 -15 -10 -16 76 -6
111 -5 116 2 3 5 -1 9 -8 9 -9 0 -9 3 2 10 19 12 33 13 26 1 -7 -11 12 -26 42
-34 23 -5 31 8 10 17 -7 2 -2 3 12 1 14 -2 32 -4 41 -4 9 -1 19 -11 22 -23 6
-20 7 -20 32 -4 23 15 27 15 40 2 8 -8 24 -17 34 -21 15 -4 19 -14 17 -45 -1
-37 -3 -39 -37 -45 -53 -9 -113 -31 -117 -44 -4 -11 23 -5 43 9 6 4 30 11 55
15 55 9 80 24 80 48 0 11 5 15 11 11 6 -3 9 -15 6 -25 -8 -29 10 -32 35 -7 13
13 26 22 29 21 3 -1 29 4 57 11 43 12 54 12 69 0 17 -13 17 -13 1 -14 -10 0
-18 -3 -18 -7 0 -5 30 -9 68 -10 103 -4 168 -13 186 -26 22 -16 11 -45 -20
-53 -13 -3 -24 -10 -24 -14 0 -5 -13 -11 -30 -15 -30 -7 -51 -25 -29 -25 23 0
84 25 92 37 4 7 19 13 32 13 13 0 30 6 37 14 9 10 17 11 30 2 12 -7 29 -7 59
1 34 9 45 8 56 -2 8 -9 9 -16 3 -20 -5 -3 -10 -10 -10 -14 0 -12 43 -22 50
-12 5 8 66 31 82 31 5 0 6 -5 3 -10 -12 -20 14 -10 38 14 14 14 27 22 31 19 3
-3 17 2 30 11 31 20 36 20 36 2 0 -7 -10 -21 -22 -30 -15 -10 -17 -14 -5 -10
11 4 17 1 17 -10 0 -16 14 -20 60 -18 23 2 22 0 -9 -17 -19 -10 -44 -16 -55
-14 -21 4 -21 4 -1 -12 14 -12 30 -14 55 -10 31 6 80 11 134 14 15 1 16 4 6
16 -10 13 -9 15 9 15 17 0 21 -4 16 -19 -4 -13 1 -21 17 -26 32 -11 88 -14 88
-5 0 7 74 -4 110 -16 21 -8 -33 -53 -71 -61 -16 -3 -32 -10 -35 -15 -6 -10 67
0 76 11 3 3 17 12 33 19 15 6 38 17 52 23 19 10 29 9 50 -5 15 -10 30 -15 33
-11 4 3 0 10 -8 15 -25 15 -3 23 58 21 20 -1 32 -6 32 -15 0 -19 34 -29 63
-20 l22 8 -25 7 c-24 7 -23 7 7 8 36 1 80 -31 50 -37 -10 -2 -15 -7 -12 -12 3
-5 13 -6 22 -3 13 5 13 3 -2 -20 -16 -25 -28 -32 -49 -28 -5 1 -3 -6 5 -15 9
-11 9 -15 2 -10 -8 4 -24 -3 -40 -18 -15 -15 -24 -26 -20 -26 4 0 3 -9 -3 -20
-9 -17 -8 -19 7 -13 10 4 24 13 32 20 10 11 16 11 27 2 8 -7 12 -14 9 -18 -3
-3 -10 1 -14 8 -7 10 -10 8 -16 -8 -4 -13 -12 -20 -20 -17 -17 6 -86 -29 -98
-49 -4 -8 -15 -15 -22 -15 -8 0 -14 -3 -13 -7 0 -5 -2 -16 -6 -25 -7 -15 -21
-18 -73 -18 -36 0 -62 4 -59 9 4 5 3 16 0 24 -10 26 -154 51 -154 27 0 -5 -11
-10 -25 -10 -17 0 -23 4 -19 15 8 21 -40 42 -60 26 -11 -9 -23 -7 -58 13 -38
21 -51 23 -83 16 -44 -10 -57 -6 -48 15 4 11 -2 15 -21 15 -14 0 -26 5 -26 10
0 7 -6 7 -18 1 -20 -11 -107 3 -128 20 -7 6 -18 8 -24 4 -5 -3 -15 -3 -21 1
-7 4 -29 9 -50 10 -20 2 -49 8 -64 14 -15 6 -31 7 -37 4 -6 -4 -14 -1 -18 7
-5 7 -24 13 -44 12 -20 -1 -36 3 -36 8 0 5 -7 9 -17 9 -14 0 -14 2 2 20 22 24
23 24 -60 5 -36 -9 -70 -13 -76 -9 -5 3 -21 -2 -35 -11 -24 -16 -24 -15 -18 9
4 19 2 24 -12 23 -10 -1 -19 5 -19 13 0 9 -8 14 -20 11 -11 -2 -36 -4 -55 -5
-19 0 -41 -5 -48 -10 -10 -6 -12 -3 -10 9 2 10 -3 20 -9 22 -7 3 -13 -2 -13
-11 0 -19 -26 -22 -33 -3 -4 10 -7 10 -18 0 -15 -15 -33 -17 -25 -4 13 20 -73
53 -123 46 -20 -2 -43 2 -55 11 -25 17 -45 19 -28 2 15 -15 16 -28 1 -28 -5 0
-15 13 -20 29 -12 33 -40 41 -148 43 -44 1 -66 -3 -72 -13 -6 -10 -9 -10 -9
-2 0 7 -7 10 -17 6 -11 -4 -14 -3 -9 5 12 20 -21 25 -54 9 -16 -9 -30 -11 -30
-6 0 5 5 9 10 9 17 0 11 28 -7 34 -53 14 -83 17 -83 6 0 -8 -6 -8 -20 0 -11 6
-25 8 -31 4 -6 -3 -16 1 -22 9 -7 9 -29 19 -49 22 -31 6 -38 4 -38 -9 0 -17
-9 -20 -34 -10 -8 3 -13 13 -10 22 5 15 4 15 -6 0 -7 -12 -23 -18 -48 -17 -31
1 -33 2 -13 8 66 18 -4 47 -76 30 -25 -5 -39 -2 -55 11 -13 9 -39 21 -58 25
-19 4 -40 11 -47 17 -6 5 -31 8 -55 8 -49 -1 -163 16 -193 30 -11 5 -40 11
-65 14 -25 2 -67 10 -95 16 -27 6 -68 13 -90 14 -22 2 -60 9 -85 16 -25 7 -56
14 -70 16 -14 1 -47 7 -75 13 -75 15 -255 43 -296 46 -20 2 -46 8 -57 14 -11
6 -32 11 -46 11 -14 0 -27 3 -29 8 -3 4 -31 8 -62 10 -32 2 -69 11 -83 20 -14
9 -38 17 -54 17 -16 0 -33 7 -39 15 -8 13 -10 13 -19 0 -8 -13 -10 -13 -10 1
0 23 37 30 155 30 113 0 104 15 -15 23 -40 3 -75 8 -79 10 -4 3 -49 8 -101 12
-67 4 -91 3 -86 -5 4 -6 0 -11 -9 -11 -9 0 -14 4 -10 9 3 6 -34 11 -87 14 -51
2 -104 7 -117 12 -18 6 -22 5 -17 -4 6 -9 -11 -11 -71 -6 -101 8 -106 10 -98
36 7 20 5 21 -21 14 -16 -5 -41 -9 -55 -10 -14 -1 -31 -5 -38 -10 -8 -4 -20 0
-29 10 -10 10 -11 15 -4 11 6 -4 12 -2 12 3 0 10 -43 17 -65 10 -5 -1 -20 -2
-32 -1 -13 0 -35 1 -50 2 -16 1 -44 6 -64 11 -19 5 -64 9 -100 10 -43 1 -80 9
-114 24 l-49 23 49 7 c28 3 106 21 175 40 270 72 273 73 293 52 14 -14 26 -17
45 -12 15 4 39 8 55 10 42 4 43 5 27 15 -12 8 -11 10 8 10 12 0 22 5 22 11 0
6 -9 8 -20 4 -11 -4 -20 -2 -20 4 0 6 9 11 19 11 11 0 23 5 26 10 3 6 14 10
23 10 13 0 14 -2 3 -9 -10 -7 -8 -12 10 -26 l24 -17 -25 5 -25 6 25 -17 c14
-9 34 -27 45 -39 22 -22 50 -17 50 9 0 7 12 14 28 16 27 3 38 27 16 34 -7 2
-9 13 -4 27 l7 23 15 -22 c8 -11 12 -27 9 -35z m4129 45 c3 -5 2 -10 -4 -10
-5 0 -13 5 -16 10 -3 6 -2 10 4 10 5 0 13 -4 16 -10z m-1695 -16 c0 -2 -9 -4
-21 -4 -11 0 -18 4 -14 10 5 8 35 3 35 -6z m558 0 c14 -15 14 -16 -3 -13 -10
2 -20 10 -23 17 -5 17 6 15 26 -4z m-388 -4 c0 -5 -9 -10 -21 -10 -11 0 -17 5
-14 10 3 6 13 10 21 10 8 0 14 -4 14 -10z m737 4 c-3 -3 -12 -4 -19 -1 -8 3
-5 6 6 6 11 1 17 -2 13 -5z m183 -5 c0 -5 -13 -12 -29 -15 -17 -4 -32 -12 -35
-20 -3 -8 -13 -14 -23 -14 -14 0 -12 5 10 28 25 26 77 40 77 21z m-1570 -8 c0
-6 -4 -13 -10 -16 -5 -3 -10 1 -10 9 0 9 5 16 10 16 6 0 10 -4 10 -9z m1760
-5 c-25 -15 -45 -12 -35 5 4 5 18 9 33 9 l27 -1 -25 -13z m-4005 -6 c3 -6 -4
-10 -17 -10 -18 0 -20 2 -8 10 19 12 18 12 25 0z m398 -10 c6 -22 0 -25 -22
-11 -7 5 -10 14 -7 20 11 17 23 13 29 -9z m3192 10 c3 -5 -1 -10 -10 -10 -9 0
-13 5 -10 10 3 6 8 10 10 10 2 0 7 -4 10 -10z m1356 0 c5 0 9 -4 9 -9 0 -4
-11 -6 -25 -3 -14 2 -25 9 -25 14 0 6 7 7 16 4 9 -3 20 -6 25 -6z m-2881 -16
c0 -2 -9 -4 -21 -4 -11 0 -18 4 -14 10 5 8 35 3 35 -6z m440 -4 c13 -9 13 -10
-1 -10 -8 0 -26 -11 -39 -25 -28 -30 -46 -32 -55 -5 -9 27 3 44 20 30 10 -8
17 -7 27 4 15 18 27 19 48 6z m310 0 c8 -5 11 -10 5 -10 -5 0 -17 5 -25 10 -8
5 -10 10 -5 10 6 0 17 -5 25 -10z m600 0 c0 -5 -4 -10 -10 -10 -5 0 -10 5 -10
10 0 6 5 10 10 10 6 0 10 -4 10 -10z m540 0 c0 -5 -4 -10 -10 -10 -5 0 -7 -8
-3 -17 5 -15 3 -14 -10 2 -8 11 -13 23 -11 27 7 12 34 10 34 -2z m-1700 -9 c0
-12 -20 -25 -27 -18 -7 7 6 27 18 27 5 0 9 -4 9 -9z m2030 -32 c0 -4 -9 -9
-21 -12 -16 -4 -18 -3 -8 9 9 11 8 15 -5 20 -9 3 -16 10 -16 16 0 10 49 -23
50 -33z m-1260 16 c0 -9 -11 -20 -25 -25 -14 -5 -25 -14 -25 -20 0 -5 -8 -10
-17 -10 -14 1 -11 6 12 26 17 13 35 29 40 34 14 13 15 12 15 -5z m-835 -5 c-3
-5 -10 -10 -16 -10 -5 0 -9 5 -9 10 0 6 7 10 16 10 8 0 12 -4 9 -10z m1323 -8
c-19 -11 -26 -22 -22 -34 3 -12 0 -18 -10 -18 -9 0 -16 5 -16 10 0 15 47 60
62 60 7 0 1 -8 -14 -18z m187 -1 c-3 -6 -16 -11 -28 -11 -21 0 -21 1 3 13 27
15 36 14 25 -2z m195 5 c0 -8 -14 -22 -32 -30 -40 -20 -41 -20 -28 4 6 11 20
20 31 20 11 0 17 5 14 10 -3 6 -1 10 4 10 6 0 11 -6 11 -14z m480 10 c0 -2 -7
-6 -15 -10 -8 -3 -15 -1 -15 4 0 6 7 10 15 10 8 0 15 -2 15 -4z m-1990 -15 c0
-12 -20 -25 -27 -18 -7 7 6 27 18 27 5 0 9 -4 9 -9z m240 -23 c0 -5 -7 -8 -15
-8 -8 0 -15 -4 -15 -9 0 -5 -9 -7 -20 -4 -12 3 -22 -1 -26 -11 -3 -9 -12 -16
-20 -16 -22 0 -16 16 11 28 13 6 30 20 36 31 10 15 16 17 31 8 10 -7 18 -15
18 -19z m1370 17 c-7 -9 -15 -13 -19 -10 -3 3 1 10 9 15 21 14 24 12 10 -5z
m163 -5 c-3 -11 -9 -17 -14 -15 -10 7 -1 35 11 35 5 0 6 -9 3 -20z m-3704 -11
c-16 -10 -23 -4 -14 10 3 6 11 8 17 5 6 -4 5 -9 -3 -15z m2691 17 c0 -11 -19
-15 -25 -6 -3 5 1 10 9 10 9 0 16 -2 16 -4z m162 -18 c-9 -9 -7 -14 6 -24 16
-13 16 -13 -1 -14 -10 0 -30 -11 -45 -25 -26 -25 -52 -33 -52 -17 0 13 49 52
65 52 8 0 14 3 14 8 -3 19 2 32 13 32 9 0 9 -3 0 -12z m2122 3 c3 -5 -5 -11
-19 -13 -14 -3 -26 0 -29 8 -6 16 39 20 48 5z m-2964 -21 c0 -5 -4 -10 -10
-10 -5 0 -10 5 -10 10 0 6 5 10 10 10 6 0 10 -4 10 -10z m626 -16 c-10 -7 -15
-17 -11 -23 3 -7 -2 -11 -14 -11 -12 0 -21 -6 -21 -14 0 -17 27 -29 35 -16 4
6 11 10 17 10 6 0 -1 -10 -16 -21 -15 -12 -25 -28 -22 -35 6 -15 -5 -16 -44
-5 -24 7 -24 7 8 14 40 8 39 30 -1 35 -15 2 -27 7 -27 11 0 13 24 31 42 31 10
0 25 11 34 25 9 14 21 22 27 18 6 -4 3 -11 -7 -19z m1129 16 c3 -5 -3 -10 -15
-10 -12 0 -18 5 -15 10 3 6 10 10 15 10 5 0 12 -4 15 -10z m655 0 c13 -8 13
-10 -2 -10 -9 0 -20 5 -23 10 -8 13 5 13 25 0z m-1246 -16 c8 -22 6 -23 -26
-17 -42 8 -35 23 13 32 4 0 10 -6 13 -15z m441 -19 c0 -22 -5 -31 -20 -33 -16
-2 -17 -1 -6 7 12 8 12 13 -2 34 -15 24 -15 25 6 23 18 -1 23 -7 22 -31z
m-1354 3 c-11 -31 -37 -46 -53 -30 -9 9 -7 12 12 12 13 0 20 3 17 7 -8 7 11
33 24 33 5 0 5 -10 0 -22z m1146 16 c-3 -3 -12 -4 -19 -1 -8 3 -5 6 6 6 11 1
17 -2 13 -5z m-410 -20 c4 -11 -42 -30 -60 -25 -4 0 -3 -8 3 -20 14 -25 8 -35
-9 -15 -7 8 -20 12 -29 9 -9 -3 1 11 22 31 38 36 65 43 73 20z m353 8 c0 -17
-37 -52 -54 -52 -10 0 -15 -4 -12 -9 8 -12 -13 -27 -47 -35 -22 -5 -27 -11
-22 -26 7 -22 -24 -44 -49 -34 -18 7 -21 -7 -5 -23 7 -7 7 -13 0 -17 -5 -4
-15 3 -21 14 -15 28 8 51 41 43 21 -6 22 -4 12 9 -11 13 -5 22 39 59 82 70
118 91 118 71z m810 4 c0 -3 -4 -8 -10 -11 -5 -3 -10 -1 -10 4 0 6 5 11 10 11
6 0 10 -2 10 -4z m2428 -20 c7 -4 12 -33 12 -74 0 -37 5 -85 11 -106 9 -33 8
-41 -5 -48 -9 -5 -16 -22 -16 -41 0 -22 -7 -36 -21 -45 -15 -10 -19 -20 -15
-36 4 -17 -2 -30 -22 -50 -15 -14 -34 -34 -43 -44 -8 -9 -29 -28 -45 -42 -22
-19 -25 -25 -13 -28 12 -2 3 -16 -32 -55 -26 -29 -65 -71 -86 -95 -64 -73 -97
-102 -121 -109 -12 -3 -27 -13 -32 -23 -12 -22 -52 -19 -61 6 -3 10 -4 23 -2
27 3 5 -3 7 -13 5 -15 -3 -19 -12 -17 -46 1 -25 -2 -40 -8 -37 -5 4 -9 1 -9
-6 0 -18 -41 -59 -59 -59 -14 0 -14 -1 -1 -10 14 -9 13 -11 -10 -14 -5 0 -25
-18 -45 -39 -19 -20 -35 -35 -35 -32 0 3 -10 -3 -22 -15 -12 -11 -25 -20 -30
-20 -4 0 -8 -8 -8 -19 0 -10 -9 -21 -20 -24 -11 -3 -20 -14 -20 -25 0 -10 -11
-27 -24 -38 -14 -10 -23 -22 -20 -26 3 -4 -3 -11 -13 -14 -35 -11 -83 -39 -83
-47 0 -5 -8 -7 -17 -5 -23 5 -57 -27 -50 -45 6 -16 -36 -60 -66 -70 -13 -5
-16 -13 -12 -27 5 -15 0 -21 -19 -26 -17 -4 -26 -13 -26 -25 0 -11 -7 -22 -15
-25 -8 -4 -15 -12 -15 -20 0 -8 -4 -14 -10 -14 -5 0 -16 -12 -24 -27 -13 -25
-15 -25 -16 -7 0 36 -13 36 -47 -1 -18 -19 -35 -35 -38 -35 -3 0 -16 -11 -29
-25 -27 -29 -36 -31 -36 -9 0 9 -6 14 -12 11 -7 -2 -12 -13 -10 -23 9 -51 7
-59 -15 -62 -24 -3 -32 -22 -11 -22 7 0 2 -7 -10 -16 -12 -8 -19 -20 -16 -26
5 -7 0 -9 -13 -6 -15 4 -31 -5 -57 -33 -19 -22 -31 -39 -26 -39 6 0 10 -4 10
-9 0 -5 -10 -7 -21 -4 -15 4 -27 0 -35 -12 -13 -18 -14 -17 -15 6 -1 13 -1 27
0 32 2 12 -17 8 -33 -8 -8 -8 -27 -40 -41 -70 -15 -30 -34 -55 -41 -55 -8 0
-14 -4 -14 -8 0 -4 -20 -16 -45 -26 -25 -11 -45 -23 -45 -28 0 -4 -7 -8 -15
-8 -8 0 -15 9 -15 20 0 28 -17 25 -24 -4 -8 -31 -95 -83 -108 -64 -6 10 -8 9
-8 -3 0 -30 -187 -165 -205 -148 -2 3 2 18 11 34 11 22 12 30 2 36 -8 5 -18
-5 -30 -29 l-17 -37 1 36 c2 40 -17 73 -39 65 -17 -7 -17 8 1 23 11 9 18 8 31
-6 17 -16 17 -16 11 5 -5 14 -3 22 4 22 6 0 8 5 5 10 -3 6 5 10 19 10 13 0 26
5 28 12 2 6 11 9 20 5 11 -4 15 -13 10 -29 -3 -12 -7 -17 -10 -10 -3 10 -7 10
-18 1 -11 -9 -14 -8 -14 2 0 11 -2 11 -10 -1 -14 -22 -12 -40 5 -40 8 0 15 -7
15 -15 0 -29 29 -15 40 20 6 19 15 35 20 35 12 0 20 -29 10 -35 -6 -4 -10 -15
-10 -26 0 -21 24 -26 36 -7 4 7 3 8 -4 4 -7 -4 -12 -1 -12 8 0 8 6 16 12 18 9
3 8 11 -4 30 -17 25 -17 26 7 32 15 4 26 16 30 35 4 20 16 33 36 41 36 15 38
30 4 30 -23 0 -24 2 -13 20 14 22 41 34 73 35 11 0 20 6 21 13 1 6 2 16 3 21
0 5 12 12 26 15 13 3 34 16 45 28 l20 22 0 -22 c0 -12 -4 -22 -10 -22 -5 0
-10 -7 -10 -15 0 -8 5 -15 10 -15 6 0 10 -7 10 -16 0 -12 -7 -14 -27 -10 -38
8 -54 -5 -57 -45 -2 -19 -5 -38 -6 -44 -5 -22 1 -34 15 -29 9 4 14 14 13 23
-2 11 5 17 23 19 15 2 35 12 45 23 9 10 23 19 29 19 22 0 76 64 71 82 -2 10 0
19 5 19 5 1 14 2 20 3 6 0 17 12 24 26 14 25 14 25 15 3 0 -25 1 -26 24 -17 9
3 16 15 16 26 0 14 -5 18 -15 14 -10 -3 -15 1 -15 13 0 10 7 24 15 31 23 19
18 33 -10 28 -18 -4 -26 0 -30 13 -8 23 -23 25 -31 4 -8 -20 -26 -19 -22 1 2
10 -3 19 -11 22 -9 3 -11 -1 -7 -14 5 -17 -1 -19 -42 -22 -71 -4 -86 -10 -70
-29 9 -12 10 -17 2 -20 -7 -2 -10 -12 -7 -23 3 -12 -2 -20 -17 -25 -12 -4 -24
-4 -27 -1 -3 2 -16 -8 -30 -25 -14 -16 -31 -29 -39 -29 -8 0 -14 -4 -14 -10 0
-19 -41 -52 -57 -46 -12 5 -13 9 -3 21 7 8 10 22 6 30 -4 10 2 19 16 24 13 5
17 10 10 15 -6 3 -13 2 -17 -4 -8 -12 -45 -13 -65 0 -12 7 -12 12 4 29 10 11
21 19 25 18 3 -1 7 2 8 7 3 17 27 25 58 19 26 -6 28 -4 18 9 -11 12 -6 19 28
41 22 15 47 27 55 27 8 0 14 4 14 9 0 5 27 20 60 33 47 18 62 29 70 52 8 24
12 26 24 16 19 -15 37 -5 29 16 -3 9 0 20 8 25 10 6 11 11 3 19 -9 9 -15 7
-25 -8 -18 -25 -77 -55 -95 -48 -9 3 -19 -7 -28 -29 -20 -47 -47 -48 -39 -1 6
38 -15 62 -24 27 -3 -12 -9 -21 -14 -21 -5 0 -6 -7 -2 -16 3 -8 -4 -25 -17
-39 -17 -18 -29 -23 -51 -18 -24 4 -30 1 -38 -18 -12 -33 -87 -109 -106 -109
-9 0 -18 -7 -21 -15 -8 -19 -34 -20 -34 -1 0 12 -13 14 -57 13 -52 -2 -58 0
-58 18 0 15 10 22 36 29 24 6 39 17 47 35 10 24 49 50 95 65 9 3 17 12 17 20
0 9 14 22 30 31 17 9 30 19 30 24 0 5 11 12 25 15 14 4 25 11 25 16 0 6 6 10
13 10 13 0 29 11 77 52 8 7 16 12 18 10 1 -2 8 -1 15 1 6 3 3 6 -8 6 -11 1
-33 -6 -49 -14 -15 -8 -32 -15 -37 -15 -5 0 -37 -22 -71 -50 -59 -48 -99 -62
-113 -40 -3 6 -21 10 -40 10 -20 0 -35 6 -39 15 -3 8 -2 14 2 14 21 -4 34 3
29 14 -4 10 5 13 34 13 37 0 52 -10 28 -18 -9 -3 -9 -10 0 -27 12 -22 13 -22
32 -5 12 11 17 24 13 40 -7 26 22 73 46 74 10 1 11 3 2 7 -19 7 -4 23 23 23
17 0 25 7 28 23 3 20 5 19 16 -11 l13 -33 25 26 c22 21 24 27 12 41 -11 14
-10 18 6 30 15 11 20 11 26 2 5 -7 4 -17 -1 -22 -6 -6 -10 -14 -10 -18 0 -14
20 -8 40 12 11 11 16 20 10 20 -17 0 -11 35 8 46 15 10 20 7 31 -18 11 -24 11
-32 1 -38 -7 -5 -10 -17 -7 -29 3 -12 -1 -28 -10 -36 -20 -20 -14 -19 43 10
27 14 57 22 66 19 21 -6 61 13 53 27 -4 5 -1 9 4 9 6 0 11 3 11 8 0 14 -55 10
-72 -5 -28 -25 -58 -1 -58 46 0 40 33 86 43 59 3 -9 10 -6 22 10 9 12 20 22
24 22 5 0 12 -10 16 -22 8 -22 8 -22 12 5 3 19 14 32 31 40 15 6 29 14 32 17
19 20 75 52 93 53 36 4 87 31 87 46 0 12 -3 12 -12 3 -7 -7 -25 -12 -40 -12
-15 0 -28 -4 -28 -8 0 -10 -70 -36 -77 -28 -4 3 1 6 10 6 10 0 17 8 17 20 0
13 9 22 25 26 14 3 25 12 25 20 0 8 10 14 24 14 13 0 29 7 36 15 7 9 28 23 47
31 18 9 38 25 44 35 5 11 16 19 24 19 7 0 23 16 36 36 14 23 24 32 29 24 8
-12 39 16 98 89 19 22 38 41 44 41 6 0 19 11 30 25 11 14 30 25 44 25 13 0 24
5 24 10 0 21 44 70 64 70 22 0 56 27 56 45 0 26 95 95 131 95 18 0 39 13 97
61 11 9 11 13 2 19 -8 5 -2 10 16 14 16 4 30 3 34 -4 5 -7 11 -6 20 5 7 8 23
15 36 15 15 0 24 6 24 15 0 11 -11 15 -40 15 -22 0 -40 5 -40 10 0 6 5 10 11
10 6 0 20 12 31 26 11 14 26 23 33 20 8 -3 19 2 25 10 7 8 24 14 39 15 14 0
20 3 14 6 -8 3 9 21 39 44 l52 39 22 -21 c21 -20 24 -20 53 -4 18 9 29 20 26
25 -3 5 3 11 14 15 16 5 31 15 78 55 7 5 18 10 25 10 7 0 30 10 51 23 37 23
72 27 95 13z m-3849 -22 c-6 -7 -9 -20 -6 -29 4 -8 2 -17 -3 -20 -6 -4 -6 -14
1 -26 9 -19 8 -20 -18 -17 -19 2 -27 8 -24 18 2 8 4 24 5 34 0 22 37 64 49 58
4 -2 3 -10 -4 -18z m398 9 c3 -7 -3 -9 -16 -6 -12 3 -21 1 -21 -6 0 -6 7 -11
16 -11 8 0 12 -5 9 -10 -5 -8 -11 -8 -19 -1 -9 8 -19 4 -36 -14 -13 -14 -34
-25 -46 -25 -17 0 -22 -4 -18 -15 4 -8 13 -15 21 -15 8 0 12 -4 9 -8 -6 -11
-66 -3 -66 9 0 4 28 29 63 56 34 26 64 51 66 56 4 11 34 4 38 -10z m93 7 c0
-5 -4 -10 -10 -10 -5 0 -10 5 -10 10 0 6 5 10 10 10 6 0 10 -4 10 -10z m-2560
-10 c0 -5 -5 -10 -11 -10 -5 0 -7 5 -4 10 3 6 8 10 11 10 2 0 4 -4 4 -10z
m2891 -6 c7 -9 14 -25 16 -36 2 -15 -1 -19 -13 -14 -9 4 -23 1 -30 -5 -8 -6
-14 -8 -14 -4 0 4 8 14 17 21 10 7 15 16 10 20 -4 4 -13 2 -19 -4 -16 -16 -27
-15 -24 1 5 37 34 48 57 21z m99 6 c0 -5 -5 -10 -11 -10 -5 0 -7 5 -4 10 3 6
8 10 11 10 2 0 4 -4 4 -10z m550 -5 c21 13 9 -4 -14 -18 -23 -15 -24 -15 -28
8 -4 21 -3 23 14 14 10 -5 23 -7 28 -4z m-1754 -14 c-3 -5 4 -12 17 -16 l22
-8 -24 -4 c-30 -6 -52 14 -31 27 19 12 23 12 16 1z m929 -1 c-3 -5 -12 -10
-18 -10 -7 0 -6 4 3 10 19 12 23 12 15 0z m67 -2 c-18 -18 -14 -30 8 -23 23 7
28 -10 5 -19 -20 -7 -19 -22 5 -46 29 -29 9 -25 -26 5 -42 36 -59 31 -29 -8 7
-11 11 -25 8 -33 -3 -8 1 -14 8 -15 8 0 5 -4 -6 -9 -32 -14 -38 -11 -31 15 4
14 2 25 -4 25 -5 0 -10 -7 -10 -16 0 -13 -3 -14 -15 -4 -8 6 -20 8 -27 4 -7
-4 -10 -4 -6 1 4 4 3 14 -3 22 -9 10 -8 13 5 13 9 0 15 3 15 8 -4 24 3 34 21
29 15 -4 20 0 20 15 0 14 5 18 15 14 9 -3 15 0 15 8 0 14 14 23 35 25 5 1 4
-4 -3 -11z m1218 -3 c-7 -8 -17 -15 -22 -15 -6 0 -5 7 2 15 7 8 17 15 22 15 6
0 5 -7 -2 -15z m-2250 -15 c0 -5 -4 -10 -10 -10 -5 0 -10 5 -10 10 0 6 5 10
10 10 6 0 10 -4 10 -10z m1690 0 c0 -5 -2 -10 -4 -10 -3 0 -8 5 -11 10 -3 6
-1 10 4 10 6 0 11 -4 11 -10z m-1224 -16 c-4 -9 -2 -22 4 -29 8 -10 8 -15 -1
-20 -20 -13 -40 41 -22 58 12 13 25 7 19 -9z m1569 6 c-3 -5 -10 -10 -16 -10
-5 0 -9 5 -9 10 0 6 7 10 16 10 8 0 12 -4 9 -10z m-1315 -20 c0 -5 -7 -10 -16
-10 -8 0 -12 5 -9 10 3 6 10 10 16 10 5 0 9 -4 9 -10z m-3593 -6 c-3 -3 -12
-4 -19 -1 -8 3 -5 6 6 6 11 1 17 -2 13 -5z m1708 -3 c3 -5 2 -12 -2 -14 -13
-7 -73 4 -73 14 0 12 67 12 75 0z m1405 -1 c13 -9 13 -10 0 -10 -8 0 -22 5
-30 10 -13 9 -13 10 0 10 8 0 22 -5 30 -10z m167 -8 c-10 -10 -17 -24 -17 -30
0 -14 -26 -16 -34 -3 -4 5 9 18 26 29 42 26 45 26 25 4z m1513 -2 c0 -5 -4
-10 -10 -10 -5 0 -10 5 -10 10 0 6 5 10 10 10 6 0 10 -4 10 -10z m-798 -22
c17 -17 18 -20 4 -15 -10 4 -22 7 -27 7 -5 0 -9 7 -9 15 0 20 6 19 32 -7z
m743 12 c-3 -5 -14 -10 -23 -10 -15 0 -15 2 -2 10 20 13 33 13 25 0z m-1195
-10 c8 -5 11 -10 5 -10 -5 0 -17 5 -25 10 -8 5 -10 10 -5 10 6 0 17 -5 25 -10z
m650 -6 c0 -2 -9 -4 -21 -4 -11 0 -18 4 -14 10 5 8 35 3 35 -6z m-753 -10 c-3
-3 -12 -4 -19 -1 -8 3 -5 6 6 6 11 1 17 -2 13 -5z m-1582 -14 c3 -5 1 -10 -4
-10 -6 0 -11 5 -11 10 0 6 2 10 4 10 3 0 8 -4 11 -10z m3265 0 c0 -5 -7 -10
-15 -10 -8 0 -15 5 -15 10 0 6 7 10 15 10 8 0 15 -4 15 -10z m365 -9 c-3 -6
-11 -8 -17 -5 -6 4 -5 9 3 15 16 10 23 4 14 -10z m-1907 -8 c-4 -20 -18 -26
-37 -14 -18 12 -5 31 20 31 14 0 19 -6 17 -17z m175 -2 c-3 -11 2 -21 11 -24
9 -4 16 -2 16 3 0 6 7 10 15 10 8 0 15 -8 15 -17 0 -14 -9 -18 -35 -19 -19 0
-35 3 -35 8 0 4 -7 8 -15 8 -8 0 -15 -4 -15 -8 0 -5 -13 -7 -30 -4 -16 2 -28
8 -25 12 3 5 14 6 24 3 24 -6 61 13 61 32 0 8 4 15 9 15 5 0 7 -8 4 -19z
m-243 5 c0 -11 -19 -15 -25 -6 -3 5 1 10 9 10 9 0 16 -2 16 -4z m739 -12 c9
-8 -23 -34 -40 -34 -14 0 -19 -7 -19 -29 0 -24 -3 -28 -20 -24 -23 6 -24 8 -8
36 17 32 18 47 2 47 -8 0 -14 4 -14 9 0 8 89 3 99 -5z m1001 6 c0 -5 -4 -10
-9 -10 -6 0 -13 5 -16 10 -3 6 1 10 9 10 9 0 16 -4 16 -10z m-1321 -23 c-56
-47 -67 -55 -72 -50 -3 2 -14 0 -25 -6 -17 -9 -19 -8 -15 9 4 13 14 20 32 21
14 0 42 11 61 24 44 30 53 31 19 2z m-3418 2 c-16 -6 -28 -6 -35 1 -7 7 1 10
25 9 32 0 33 -1 10 -10z m3580 1 c18 0 8 -21 -14 -29 -13 -5 -29 -16 -36 -25
-10 -12 -17 -13 -27 -5 -7 6 -19 7 -25 3 -9 -5 -7 -10 7 -15 18 -7 18 -8 -1
-8 -11 0 -31 6 -45 14 -25 14 -25 14 -2 15 12 0 22 4 22 9 0 5 14 11 30 13 26
4 30 2 26 -16 -3 -12 0 -9 6 7 7 15 19 27 27 27 14 0 14 2 1 11 -12 9 -12 10
3 5 10 -3 23 -6 28 -6z m214 0 c3 -5 -1 -10 -9 -10 -9 0 -16 5 -16 10 0 6 4
10 9 10 6 0 13 -4 16 -10z m805 -15 c0 -8 -4 -15 -10 -15 -5 0 -7 7 -4 15 4 8
8 15 10 15 2 0 4 -7 4 -15z m-985 -5 c3 -5 1 -10 -4 -10 -6 0 -11 5 -11 10 0
6 2 10 4 10 3 0 8 -4 11 -10z m791 -19 c-4 -5 0 -12 6 -14 8 -3 6 -6 -4 -6
-18 -1 -24 10 -11 22 9 10 15 8 9 -2z m-813 -15 c10 -8 14 -17 9 -20 -15 -9
-42 4 -42 20 0 17 10 17 33 0z m307 -36 c7 -14 7 -20 0 -20 -5 0 -10 4 -10 9
0 14 -32 23 -44 11 -7 -7 -5 -10 8 -10 29 0 9 -15 -24 -18 -17 -1 -43 5 -58
13 -19 11 -21 14 -7 11 11 -2 32 -7 48 -10 15 -4 27 -3 26 1 -6 38 42 48 61
13z m387 14 c-3 -3 -12 -4 -19 -1 -8 3 -5 6 6 6 11 1 17 -2 13 -5z m-99 -21
c-6 -7 -14 -10 -19 -7 -15 9 -10 20 10 20 15 0 17 -3 9 -13z m692 -3 c0 -5 -7
-7 -15 -4 -8 4 -15 8 -15 10 0 2 7 4 15 4 8 0 15 -4 15 -10z m-1177 -17 c-7
-2 -19 -2 -25 0 -7 3 -2 5 12 5 14 0 19 -2 13 -5z m92 -16 c16 -13 15 -14 -13
-9 -18 2 -29 8 -26 13 7 12 17 11 39 -4z m82 -23 c-3 -3 -12 -4 -19 -1 -8 3
-5 6 6 6 11 1 17 -2 13 -5z m-1522 -14 c3 -5 1 -10 -4 -10 -6 0 -11 5 -11 10
0 6 2 10 4 10 3 0 8 -4 11 -10z m1608 3 c-7 -2 -19 -2 -25 0 -7 3 -2 5 12 5
14 0 19 -2 13 -5z m687 -29 c0 -2 -9 0 -20 6 -11 6 -20 13 -20 16 0 2 9 0 20
-6 11 -6 20 -13 20 -16z m40 10 c0 -8 -4 -12 -10 -9 -5 3 -10 10 -10 16 0 5 5
9 10 9 6 0 10 -7 10 -16z m-4040 -4 c0 -5 -2 -10 -4 -10 -3 0 -8 5 -11 10 -3
6 -1 10 4 10 6 0 11 -4 11 -10z m3450 -5 c0 -2 -9 -3 -19 -2 -11 0 -18 5 -15
9 4 6 34 0 34 -7z m90 -6 c0 -14 -27 -10 -33 5 -4 10 0 12 14 9 10 -3 19 -9
19 -14z m381 7 c5 3 9 0 9 -6 0 -15 -23 -7 -26 8 -1 7 0 8 3 2 2 -5 9 -8 14
-4z m-76 -6 c3 -5 1 -10 -4 -10 -6 0 -11 5 -11 10 0 6 2 10 4 10 3 0 8 -4 11
-10z m-1445 -55 c0 -13 -5 -27 -12 -31 -7 -4 -8 -3 -4 4 5 8 0 12 -13 12 -11
0 -23 -5 -26 -10 -5 -8 -11 -8 -19 -1 -7 6 -15 10 -17 8 -2 -1 2 4 10 11 8 6
23 12 33 12 10 0 18 7 18 15 0 9 6 12 15 9 8 -4 15 -17 15 -29z m-183 19 c-3
-3 -12 -4 -19 -1 -8 3 -5 6 6 6 11 1 17 -2 13 -5z m438 -121 c-11 -3 -24 -9
-29 -14 -6 -5 -15 -9 -20 -9 -6 0 -2 7 8 15 11 8 29 14 40 14 20 -1 21 -1 1
-6z m85 -13 c0 -5 -4 -10 -10 -10 -5 0 -10 5 -10 10 0 6 5 10 10 10 6 0 10 -4
10 -10z m-3970 -19 c0 -5 -7 -11 -15 -15 -15 -5 -20 5 -8 17 9 10 23 9 23 -2z
m2590 -56 c-24 -26 -40 -32 -40 -16 0 15 30 41 47 41 13 0 12 -5 -7 -25z
m2264 -54 c4 -5 -3 -7 -14 -4 -23 6 -26 13 -6 13 8 0 17 -4 20 -9z m-3413 -24
c-10 -9 -11 -8 -5 6 3 10 9 15 12 12 3 -3 0 -11 -7 -18z m3266 17 c-3 -3 -12
-4 -19 -1 -8 3 -5 6 6 6 11 1 17 -2 13 -5z m-1767 -24 c0 -5 -9 -10 -20 -10
-11 0 -20 -4 -20 -10 0 -5 -15 -9 -32 -9 -32 2 -32 2 -5 6 16 3 31 11 34 19 6
16 43 19 43 4z m-3124 -57 c16 -21 18 -37 4 -28 -13 8 -33 45 -24 45 4 0 13
-8 20 -17z m2824 -7 c0 -3 -4 -8 -10 -11 -5 -3 -10 -1 -10 4 0 6 5 11 10 11 6
0 10 -2 10 -4z m454 -27 c-3 -5 -10 -7 -15 -3 -5 3 -7 10 -3 15 3 5 10 7 15 3
5 -3 7 -10 3 -15z m354 -23 c-7 -8 -15 -12 -17 -11 -5 6 10 25 20 25 5 0 4 -6
-3 -14z m256 -27 c-3 -5 -10 -7 -15 -3 -5 3 -7 10 -3 15 3 5 10 7 15 3 5 -3 7
-10 3 -15z m-2504 -29 c0 -5 -4 -10 -10 -10 -5 0 -10 5 -10 10 0 6 5 10 10 10
6 0 10 -4 10 -10z m2343 -35 c-21 -16 -28 -12 -20 9 4 9 13 13 22 10 14 -6 13
-8 -2 -19z m594 -21 c-3 -3 -12 -4 -19 -1 -8 3 -5 6 6 6 11 1 17 -2 13 -5z
m-4291 -29 c-9 -9 -16 -13 -16 -8 0 12 22 34 28 28 2 -2 -3 -11 -12 -20z
m2414 15 c0 -5 -5 -10 -11 -10 -5 0 -7 5 -4 10 3 6 8 10 11 10 2 0 4 -4 4 -10z
m-1835 -29 c3 -6 -3 -9 -14 -8 -11 0 -17 5 -15 9 7 11 22 10 29 -1z m395 -1
c0 -5 -2 -10 -4 -10 -3 0 -8 5 -11 10 -3 6 -1 10 4 10 6 0 11 -4 11 -10z
m2630 0 c0 -5 -2 -10 -4 -10 -3 0 -8 5 -11 10 -3 6 -1 10 4 10 6 0 11 -4 11
-10z m45 0 c3 -6 -4 -10 -17 -10 -18 0 -20 2 -8 10 19 12 18 12 25 0z m1353
-20 c18 -29 -4 -62 -38 -58 -18 2 -26 10 -28 28 -2 19 -1 22 7 10 10 -14 25
-8 27 11 1 5 2 14 3 19 2 16 15 12 29 -10z m-4958 -16 c0 -2 -7 -4 -15 -4 -8
0 -15 4 -15 10 0 5 7 7 15 4 8 -4 15 -8 15 -10z m1430 6 c0 -5 -4 -10 -10 -10
-5 0 -10 5 -10 10 0 6 5 10 10 10 6 0 10 -4 10 -10z m1450 0 c0 -5 -5 -10 -11
-10 -5 0 -7 5 -4 10 3 6 8 10 11 10 2 0 4 -4 4 -10z m-2105 -23 c0 -26 -20
-25 -23 2 -3 16 1 22 10 19 7 -3 13 -12 13 -21z m3095 13 c0 -5 -4 -10 -10
-10 -5 0 -10 5 -10 10 0 6 5 10 10 10 6 0 10 -4 10 -10z m-3540 -10 c0 -5 -4
-10 -10 -10 -5 0 -10 5 -10 10 0 6 5 10 10 10 6 0 10 -4 10 -10z m2483 3 c-7
-2 -19 -2 -25 0 -7 3 -2 5 12 5 14 0 19 -2 13 -5z m952 -23 c-3 -5 -11 -10
-16 -10 -6 0 -7 5 -4 10 3 6 11 10 16 10 6 0 7 -4 4 -10z m375 -11 c0 -5 -7
-9 -15 -9 -15 0 -20 12 -9 23 8 8 24 -1 24 -14z m-3080 -3 c0 -9 -9 -12 -25
-8 -29 5 -26 17 4 19 12 1 21 -4 21 -11z m815 4 c3 -5 -1 -10 -9 -10 -8 0 -18
5 -21 10 -3 6 1 10 9 10 8 0 18 -4 21 -10z m2776 1 c-8 -5 -20 -7 -28 -4 -21
8 -15 13 15 13 20 0 23 -3 13 -9z m-1401 -21 c0 -5 -2 -10 -4 -10 -3 0 -8 5
-11 10 -3 6 -1 10 4 10 6 0 11 -4 11 -10z m1617 -29 c1 -24 -2 -31 -13 -27 -8
3 -14 2 -14 -3 0 -18 51 -22 73 -5 13 10 16 14 5 11 -9 -3 -19 1 -22 10 -8 21
3 36 21 29 9 -4 22 2 30 11 13 16 14 14 8 -22 -3 -22 -7 -47 -9 -55 -2 -11
-18 -15 -62 -15 -49 0 -59 -4 -62 -18 -3 -12 4 -20 17 -24 30 -8 26 -18 -9
-19 -24 -1 -30 4 -35 27 -4 16 -11 29 -16 29 -5 0 -9 7 -9 15 0 8 7 15 15 15
10 0 15 10 15 28 0 18 7 31 23 38 32 17 42 11 44 -25z m-4497 19 c0 -5 -2 -10
-4 -10 -3 0 -8 5 -11 10 -3 6 -1 10 4 10 6 0 11 -4 11 -10z m2950 0 c0 -5 -7
-10 -16 -10 -8 0 -12 5 -9 10 3 6 10 10 16 10 5 0 9 -4 9 -10z m1335 0 c3 -5
-1 -10 -9 -10 -9 0 -16 5 -16 10 0 6 4 10 9 10 6 0 13 -4 16 -10z m-3115 -14
c0 -3 -4 -8 -10 -11 -5 -3 -10 -1 -10 4 0 6 5 11 10 11 6 0 10 -2 10 -4z m402
-28 c-9 -9 -12 -7 -12 12 0 19 3 21 12 12 9 -9 9 -15 0 -24z m2014 5 c-10 -10
-19 5 -10 18 6 11 8 11 12 0 2 -7 1 -15 -2 -18z m-3106 7 c0 -5 -9 -10 -20
-10 -11 0 -20 5 -20 10 0 6 9 10 20 10 11 0 20 -4 20 -10z m1999 -17 c-10 -11
-14 -11 -20 -1 -10 17 -2 28 17 21 11 -4 12 -8 3 -20z m1136 17 c3 -5 1 -10
-4 -10 -6 0 -11 5 -11 10 0 6 2 10 4 10 3 0 8 -4 11 -10z m-975 -20 c18 -12 2
-12 -25 0 -13 6 -15 9 -5 9 8 0 22 -4 30 -9z m-75 -20 c3 -6 -1 -13 -10 -16
-19 -8 -30 0 -20 15 8 14 22 14 30 1z m605 0 c0 -5 -5 -10 -11 -10 -5 0 -7 5
-4 10 3 6 8 10 11 10 2 0 4 -4 4 -10z m942 -20 c9 -23 8 -23 -12 -5 -22 20
-27 39 -8 33 6 -2 15 -15 20 -28z m-4363 7 c8 -11 6 -13 -12 -11 -30 3 -29 3
-22 14 8 14 20 13 34 -3z m1286 3 c-3 -5 -13 -10 -21 -10 -8 0 -12 5 -9 10 3
6 13 10 21 10 8 0 12 -4 9 -10z m2825 -18 c0 -5 -13 -9 -30 -9 -16 0 -30 4
-30 9 0 4 14 8 30 8 17 0 30 -4 30 -8z m-3015 -19 c-11 -3 -23 -10 -27 -16 -4
-6 -10 -8 -13 -5 -13 13 6 28 33 27 21 -1 23 -2 7 -6z m472 -16 c-6 -19 -24
-18 -29 1 -4 15 -1 18 14 14 10 -2 17 -9 15 -15z m3432 10 c8 -11 6 -18 -9
-32 -20 -18 -20 -17 -20 13 0 34 10 41 29 19z m-431 -15 c2 -7 -2 -10 -12 -6
-9 3 -16 11 -16 16 0 13 23 5 28 -10z m-2530 -4 c-6 -18 -28 -21 -28 -4 0 9 7
16 16 16 9 0 14 -5 12 -12z m-599 -40 c-15 -28 -26 -29 -31 -4 -4 19 -1 23 18
22 17 -1 20 -4 13 -18z m3256 12 c-3 -5 -10 -10 -16 -10 -5 0 -9 5 -9 10 0 6
7 10 16 10 8 0 12 -4 9 -10z m-4295 -10 c0 -5 -4 -10 -10 -10 -5 0 -10 5 -10
10 0 6 5 10 10 10 6 0 10 -4 10 -10z m970 0 c0 -5 -5 -10 -11 -10 -5 0 -7 5
-4 10 3 6 8 10 11 10 2 0 4 -4 4 -10z m230 6 c0 -3 -4 -8 -10 -11 -5 -3 -10
-1 -10 4 0 6 5 11 10 11 6 0 10 -2 10 -4z m537 -13 c-9 -9 -19 -14 -23 -11
-10 10 6 28 24 28 15 0 15 -1 -1 -17z m2163 7 c0 -5 -2 -10 -4 -10 -3 0 -8 5
-11 10 -3 6 -1 10 4 10 6 0 11 -4 11 -10z m-3453 -6 c-3 -3 -12 -4 -19 -1 -8
3 -5 6 6 6 11 1 17 -2 13 -5z m2166 -25 c-18 -16 -53 -20 -53 -6 0 9 11 14 30
14 17 0 27 -4 23 -8z m817 7 c0 -3 -4 -8 -10 -11 -5 -3 -10 -1 -10 4 0 6 5 11
10 11 6 0 10 -2 10 -4z m840 0 c0 -3 -4 -8 -10 -11 -5 -3 -10 -1 -10 4 0 6 5
11 10 11 6 0 10 -2 10 -4z m50 -11 c-7 -8 -16 -12 -21 -9 -5 3 -9 -2 -9 -10 0
-9 -7 -16 -16 -16 -14 0 -14 2 -3 16 7 9 22 20 34 24 28 12 29 12 15 -5z m46
-20 c-6 -19 -17 -35 -23 -35 -7 0 -13 2 -13 4 0 2 -3 11 -6 20 -3 9 -1 16 6
16 6 0 18 7 26 15 22 21 22 19 10 -20z m234 10 c0 -8 -4 -15 -10 -15 -5 0 -7
7 -4 15 4 8 8 15 10 15 2 0 4 -7 4 -15z m-2645 -15 c3 -5 2 -10 -4 -10 -5 0
-13 5 -16 10 -3 6 -2 10 4 10 5 0 13 -4 16 -10z m1545 0 c0 -5 -2 -10 -4 -10
-3 0 -8 5 -11 10 -3 6 -1 10 4 10 6 0 11 -4 11 -10z m-993 -11 c-14 -8 -22 -8
-30 0 -8 8 -3 11 19 11 25 -1 27 -2 11 -11z m-1185 -11 c-9 -9 -15 -9 -24 0
-9 9 -7 12 12 12 19 0 21 -3 12 -12z m2053 2 c3 -5 1 -10 -4 -10 -6 0 -11 5
-11 10 0 6 2 10 4 10 3 0 8 -4 11 -10z m-1040 -10 c3 -5 2 -10 -4 -10 -5 0
-13 5 -16 10 -3 6 -2 10 4 10 5 0 13 -4 16 -10z m545 -10 c0 -5 -4 -10 -9 -10
-6 0 -13 5 -16 10 -3 6 1 10 9 10 9 0 16 -4 16 -10z m839 -16 c-14 -18 -24
-11 -15 11 3 9 11 13 16 10 8 -5 7 -11 -1 -21z m-1664 6 c3 -5 1 -10 -4 -10
-6 0 -11 5 -11 10 0 6 2 10 4 10 3 0 8 -4 11 -10z m2060 0 c3 -5 -1 -10 -10
-10 -9 0 -13 5 -10 10 3 6 8 10 10 10 2 0 7 -4 10 -10z m174 3 c-3 -20 2 -34
11 -28 6 3 10 1 10 -4 0 -6 -9 -11 -20 -11 -15 0 -20 7 -20 25 0 14 5 25 10
25 6 0 9 -3 9 -7z m-4655 -31 c-22 -5 -31 7 -14 18 9 6 17 5 22 -3 4 -7 1 -13
-8 -15z m2091 12 c20 -15 20 -16 -4 -12 -14 2 -26 9 -29 16 -5 16 9 15 33 -4z
m-2745 -4 c0 -5 -2 -10 -4 -10 -3 0 -8 5 -11 10 -3 6 -1 10 4 10 6 0 11 -4 11
-10z m985 -10 c3 -5 1 -10 -4 -10 -6 0 -11 5 -11 10 0 6 2 10 4 10 3 0 8 -4
11 -10z m1205 -10 c0 -5 -4 -10 -10 -10 -5 0 -10 5 -10 10 0 6 5 10 10 10 6 0
10 -4 10 -10z m1490 0 c0 -5 -4 -10 -10 -10 -5 0 -10 5 -10 10 0 6 5 10 10 10
6 0 10 -4 10 -10z m850 0 c13 -8 13 -10 -2 -10 -9 0 -20 5 -23 10 -8 13 5 13
25 0z m-3336 -21 c-3 -5 -10 -7 -15 -3 -5 3 -7 10 -3 15 3 5 10 7 15 3 5 -3 7
-10 3 -15z m1376 12 c0 -6 -4 -13 -10 -16 -5 -3 -10 1 -10 9 0 9 5 16 10 16 6
0 10 -4 10 -9z m2720 -11 c0 -5 -9 -14 -20 -20 -15 -8 -20 -8 -20 3 0 8 3 17
7 20 10 10 33 8 33 -3z m168 -8 c2 -7 -2 -10 -12 -6 -9 3 -16 11 -16 16 0 13
23 5 28 -10z m-3518 -16 c0 -13 -7 -26 -14 -29 -10 -4 -13 -1 -10 9 2 7 6 21
9 29 7 23 15 18 15 -9z m-890 4 c0 -5 -4 -10 -10 -10 -5 0 -10 5 -10 10 0 6 5
10 10 10 6 0 10 -4 10 -10z m2505 0 c3 -5 1 -10 -4 -10 -6 0 -11 5 -11 10 0 6
2 10 4 10 3 0 8 -4 11 -10z m35 6 c0 -3 -4 -8 -10 -11 -5 -3 -10 -1 -10 4 0 6
5 11 10 11 6 0 10 -2 10 -4z m1850 -14 c0 -9 -62 -34 -69 -27 -2 3 4 12 15 20
20 15 54 20 54 7z m-4930 -22 c0 -5 -4 -10 -10 -10 -5 0 -10 5 -10 10 0 6 5
10 10 10 6 0 10 -4 10 -10z m3040 -5 c0 -12 -19 -12 -23 0 -4 9 -1 12 9 8 7
-3 14 -7 14 -8z m1790 -5 l25 -20 -25 -20 c-14 -11 -30 -20 -37 -20 -6 0 -18
-6 -25 -12 -16 -16 -58 -21 -58 -8 0 6 8 10 19 10 10 0 25 8 32 17 10 11 10
14 2 9 -14 -8 -16 6 -7 42 8 28 40 29 74 2z m-4240 -11 c0 -5 -4 -9 -10 -9 -5
0 -10 7 -10 16 0 8 5 12 10 9 6 -3 10 -10 10 -16z m190 1 c0 -13 -5 -18 -15
-14 -8 4 -15 12 -15 20 0 8 7 14 15 14 8 0 15 -9 15 -20z m4212 0 c7 -11 20
-20 30 -20 9 0 20 -5 23 -10 5 -8 11 -8 20 0 15 12 27 0 17 -16 -4 -6 -23 -19
-42 -28 -20 -9 -51 -30 -69 -46 -18 -17 -35 -30 -38 -30 -3 0 -13 -8 -22 -18
-27 -30 -78 -62 -98 -62 -11 0 -30 -12 -42 -27 -20 -22 -25 -24 -32 -10 -5 8
-6 23 -2 33 6 16 7 16 14 -2 6 -14 8 -9 8 19 1 29 6 40 20 44 11 3 21 13 24
24 6 22 -8 26 -17 4 -3 -8 -12 -15 -20 -15 -8 0 -17 -8 -19 -17 -3 -10 -4 1
-3 23 0 23 4 40 9 37 4 -2 7 3 7 12 0 9 5 13 10 10 6 -4 22 1 35 9 14 9 25 12
25 6 0 -20 21 -10 30 15 5 14 14 25 20 25 13 0 13 -17 0 -25 -18 -11 -10 -41
14 -54 24 -14 46 -8 46 11 0 6 -10 8 -25 4 -24 -6 -35 7 -16 19 6 3 8 19 6 35
-4 35 5 38 30 10 25 -27 32 -25 33 10 0 17 -4 30 -9 30 -6 0 -7 5 -4 10 10 16
24 12 37 -10z m-3485 -6 c-3 -3 -12 -4 -19 -1 -8 3 -5 6 6 6 11 1 17 -2 13 -5z
m733 -6 c0 -6 -3 -8 -7 -5 -3 4 -12 -1 -19 -11 -8 -10 -13 -12 -14 -4 0 6 -8
13 -17 13 -10 1 -4 5 12 9 44 11 45 11 45 -2z m60 -3 c10 -12 10 -15 -4 -15
-9 0 -16 7 -16 15 0 8 2 15 4 15 2 0 9 -7 16 -15z m540 5 c0 -5 -5 -10 -11
-10 -5 0 -7 5 -4 10 3 6 8 10 11 10 2 0 4 -4 4 -10z m625 0 c3 -5 1 -10 -4
-10 -6 0 -11 5 -11 10 0 6 2 10 4 10 3 0 8 -4 11 -10z m955 1 c0 -17 -18 -21
-24 -6 -3 9 0 15 9 15 8 0 15 -4 15 -9z m-4195 -21 c3 -5 1 -10 -4 -10 -6 0
-11 5 -11 10 0 6 2 10 4 10 3 0 8 -4 11 -10z m1045 -5 c0 -12 -19 -12 -23 0
-4 9 -1 12 9 8 7 -3 14 -7 14 -8z m625 4 c4 -6 13 -8 21 -5 8 3 14 -1 14 -9 0
-10 -10 -15 -29 -15 -31 0 -47 13 -36 30 8 13 22 13 30 -1z m2415 1 c0 -5 -4
-10 -10 -10 -5 0 -10 5 -10 10 0 6 5 10 10 10 6 0 10 -4 10 -10z m-1946 -15
c3 -9 0 -15 -9 -15 -8 0 -15 7 -15 15 0 8 4 15 9 15 5 0 11 -7 15 -15z m-1154
-5 c0 -5 -4 -10 -9 -10 -6 0 -13 5 -16 10 -3 6 1 10 9 10 9 0 16 -4 16 -10z
m758 -12 c-2 -6 -10 -14 -16 -16 -7 -2 -10 2 -6 12 7 18 28 22 22 4z m28 -26
c-18 -16 -18 -16 -8 4 6 12 10 24 8 26 -1 3 2 2 8 -3 7 -6 4 -15 -8 -27z
m1394 34 c0 -3 -4 -8 -10 -11 -5 -3 -10 -1 -10 4 0 6 5 11 10 11 6 0 10 -2 10
-4z m855 -6 c3 -5 2 -10 -4 -10 -5 0 -13 5 -16 10 -3 6 -2 10 4 10 5 0 13 -4
16 -10z m-3915 -10 c0 -5 -4 -10 -10 -10 -5 0 -10 5 -10 10 0 6 5 10 10 10 6
0 10 -4 10 -10z m2716 -40 c9 0 12 -4 9 -10 -4 -6 -13 -5 -25 2 -10 7 -16 17
-13 22 4 6 8 5 11 -2 2 -7 10 -12 18 -12z m-2921 0 c3 -5 1 -10 -4 -10 -6 0
-11 5 -11 10 0 6 2 10 4 10 3 0 8 -4 11 -10z m1175 0 c0 -5 -5 -10 -11 -10 -5
0 -7 5 -4 10 3 6 8 10 11 10 2 0 4 -4 4 -10z m820 0 c0 -5 -4 -10 -10 -10 -5
0 -10 5 -10 10 0 6 5 10 10 10 6 0 10 -4 10 -10z m600 6 c0 -11 -19 -15 -25
-6 -3 5 1 10 9 10 9 0 16 -2 16 -4z m-1303 -40 c-4 -9 -11 -16 -17 -16 -11 0
-14 33 -3 44 11 10 26 -11 20 -28z m2873 13 c0 -5 -4 -9 -10 -9 -5 0 -10 7
-10 16 0 8 5 12 10 9 6 -3 10 -10 10 -16z m-225 0 c10 -15 -1 -23 -20 -15 -9
3 -13 10 -10 16 8 13 22 13 30 -1z m-1305 -9 c0 -5 -10 -10 -22 -10 -19 0 -20
2 -8 10 19 13 30 13 30 0z m-2400 -4 c0 -3 -4 -8 -10 -11 -5 -3 -10 -1 -10 4
0 6 5 11 10 11 6 0 10 -2 10 -4z m1000 -6 c0 -5 -4 -10 -10 -10 -5 0 -10 5
-10 10 0 6 5 10 10 10 6 0 10 -4 10 -10z m780 -10 c0 -5 -7 -10 -15 -10 -8 0
-15 5 -15 10 0 6 7 10 15 10 8 0 15 -4 15 -10z m2290 6 c0 -2 -9 -6 -20 -9
-11 -3 -20 -1 -20 4 0 5 9 9 20 9 11 0 20 -2 20 -4z m-3475 -26 c3 -5 -1 -10
-10 -10 -9 0 -13 5 -10 10 3 6 8 10 10 10 2 0 7 -4 10 -10z m3175 -12 c0 -13
-23 -5 -28 10 -2 7 2 10 12 6 9 -3 16 -11 16 -16z m-2410 -3 c0 -8 -4 -15 -9
-15 -13 0 -22 16 -14 24 11 11 23 6 23 -9z m176 1 c15 -16 18 -26 6 -26 -4 0
-13 9 -20 20 -14 23 -7 26 14 6z m372 -22 c-4 -3 -17 -2 -30 2 -22 7 -22 7 -3
14 20 8 44 -4 33 -16z m3142 5 c0 -6 -4 -7 -10 -4 -5 3 -10 11 -10 16 0 6 5 7
10 4 6 -3 10 -11 10 -16z m-4960 -3 c0 -2 -7 -6 -15 -10 -8 -3 -15 -1 -15 4 0
6 7 10 15 10 8 0 15 -2 15 -4z m3540 -6 c0 -5 -4 -10 -10 -10 -5 0 -10 5 -10
10 0 6 5 10 10 10 6 0 10 -4 10 -10z m1526 -2 c8 -12 5 -14 -31 -22 -33 -6
-61 6 -51 22 8 13 74 13 82 0z m-3148 -16 c2 -7 -6 -12 -17 -12 -21 0 -27 11
-14 24 9 9 26 2 31 -12z m2581 -2 c22 0 30 -19 9 -21 -7 -1 1 -4 17 -8 l30 -7
-44 -32 c-31 -22 -48 -29 -56 -22 -14 12 -25 3 -25 -20 0 -10 -18 -30 -40 -45
-35 -24 -42 -26 -57 -14 -13 11 -17 11 -20 2 -7 -21 -17 -15 -31 17 -22 49 9
92 96 130 12 5 22 14 22 19 0 13 41 19 62 9 9 -4 26 -8 37 -8z m61 -5 c0 -8
-4 -15 -10 -15 -5 0 -7 7 -4 15 4 8 8 15 10 15 2 0 4 -7 4 -15z m-316 -36 c-8
-14 -24 -10 -24 6 0 9 6 12 15 9 8 -4 12 -10 9 -15z m444 0 c2 -5 8 -7 13 -3
5 3 9 0 9 -5 0 -6 -4 -11 -10 -11 -5 0 -10 -7 -10 -15 0 -27 -17 -16 -23 15
-6 27 -27 44 -27 21 0 -11 -71 -54 -77 -47 -8 8 8 27 41 47 31 19 77 18 84 -2z
m-2318 2 c0 -5 -7 -11 -14 -14 -10 -4 -13 -1 -9 9 6 15 23 19 23 5z m-1200
-11 c0 -5 -5 -10 -11 -10 -5 0 -7 5 -4 10 3 6 8 10 11 10 2 0 4 -4 4 -10z
m3860 1 c0 -11 -39 -25 -47 -18 -3 3 -2 10 2 16 8 13 45 15 45 2z m130 -16 c0
-8 -4 -15 -10 -15 -5 0 -10 7 -10 15 0 8 5 15 10 15 6 0 10 -7 10 -15z m-2890
-10 c0 -8 -4 -15 -10 -15 -5 0 -10 7 -10 15 0 8 5 15 10 15 6 0 10 -7 10 -15z
m230 11 c0 -3 -4 -8 -10 -11 -5 -3 -10 -1 -10 4 0 6 5 11 10 11 6 0 10 -2 10
-4z m157 -2 c-3 -3 -12 -4 -19 -1 -8 3 -5 6 6 6 11 1 17 -2 13 -5z m-97 -16
c0 -5 -11 -8 -25 -8 -14 0 -25 4 -25 9 0 5 11 8 25 7 14 0 25 -4 25 -8z m-237
-24 c-7 -19 -10 -18 -16 5 -3 13 -1 18 9 14 7 -2 10 -11 7 -19z m2224 2 c-7
-18 12 -26 36 -14 13 7 17 4 17 -12 0 -11 5 -20 10 -20 6 0 10 8 10 18 0 14 2
15 10 2 12 -19 13 -33 1 -26 -5 3 -11 -3 -14 -14 -9 -36 -127 -74 -127 -41 0
8 47 26 62 23 4 -1 5 5 2 13 -5 13 -9 13 -27 0 -27 -19 -41 -19 -33 0 4 13 2
13 -14 5 -21 -11 -35 -44 -25 -60 3 -5 1 -10 -4 -10 -6 0 -11 9 -11 19 0 11
-3 26 -6 35 -4 11 2 19 17 25 13 5 38 22 54 39 32 33 50 41 42 18z m110 -2
c-3 -3 -12 -4 -19 -1 -8 3 -5 6 6 6 11 1 17 -2 13 -5z m-3057 -14 c0 -5 -2
-10 -4 -10 -3 0 -8 5 -11 10 -3 6 -1 10 4 10 6 0 11 -4 11 -10z m3300 0 c0 -5
-2 -10 -4 -10 -3 0 -8 5 -11 10 -3 6 -1 10 4 10 6 0 11 -4 11 -10z m-3255 -10
c-3 -5 -10 -10 -16 -10 -5 0 -9 5 -9 10 0 6 7 10 16 10 8 0 12 -4 9 -10z
m1395 -11 c0 -6 -4 -7 -10 -4 -5 3 -10 11 -10 16 0 6 5 7 10 4 6 -3 10 -11 10
-16z m1040 -4 c0 -8 -4 -15 -10 -15 -5 0 -10 7 -10 15 0 8 5 15 10 15 6 0 10
-7 10 -15z m-2396 -11 c3 -8 2 -12 -4 -9 -6 3 -10 10 -10 16 0 14 7 11 14 -7z
m153 -17 c-4 -14 -55 -18 -63 -5 -5 8 -1 9 10 5 10 -4 19 -1 22 8 6 15 37 8
31 -8z m213 -3 c0 -8 -5 -12 -10 -9 -6 4 -8 11 -5 16 9 14 15 11 15 -7z m633
-4 c-3 -10 -11 -24 -18 -30 -11 -10 -12 -6 -2 19 13 34 28 43 20 11z m2030 0
c-3 -13 -14 -20 -29 -20 -13 0 -24 2 -24 5 0 3 47 32 57 35 0 0 -1 -9 -4 -20z
m-1628 0 c3 -5 -1 -10 -9 -10 -8 0 -18 5 -21 10 -3 6 1 10 9 10 8 0 18 -4 21
-10z m-2217 -25 c-3 -3 -9 2 -12 12 -6 14 -5 15 5 6 7 -7 10 -15 7 -18z m1982
-5 c0 -4 -7 -10 -15 -14 -10 -4 -15 1 -15 14 0 13 5 18 15 14 8 -4 15 -10 15
-14z m1447 -6 c-15 -14 -25 -29 -22 -34 3 -5 1 -11 -4 -14 -5 -3 -12 6 -15 20
-4 15 -6 27 -4 28 2 0 12 6 23 13 37 22 51 14 22 -13z m123 18 c0 -14 -22 -31
-35 -26 -7 3 -16 1 -20 -5 -3 -6 1 -14 9 -17 9 -3 16 -13 16 -20 0 -11 -8 -9
-30 8 -32 24 -31 28 15 52 34 18 45 20 45 8z m-2890 -22 c0 -5 -4 -10 -10 -10
-5 0 -10 5 -10 10 0 6 5 10 10 10 6 0 10 -4 10 -10z m624 -5 c6 -16 -18 -45
-37 -45 -7 1 -1 10 12 20 13 11 18 20 12 20 -6 0 -11 5 -11 10 0 15 17 12 24
-5z m-147 -17 c-3 -8 -6 -5 -6 6 -1 11 2 17 5 13 3 -3 4 -12 1 -19z m2213 7
c0 -8 -7 -15 -15 -15 -8 0 -15 7 -15 15 0 8 7 15 15 15 8 0 15 -7 15 -15z
m771 -9 c-10 -11 -8 -17 6 -25 11 -6 13 -11 6 -12 -18 -2 -24 -4 -56 -17 -43
-18 -43 -15 -1 28 37 37 70 56 45 26z m-2591 -17 c0 -5 -7 -9 -15 -9 -15 0
-20 12 -9 23 8 8 24 -1 24 -14z m126 -7 c-9 -9 -37 8 -31 18 5 8 11 7 21 -1 8
-6 12 -14 10 -17z m1817 1 c4 -3 5 -8 2 -13 -6 -10 -45 9 -45 22 0 7 22 2 43
-9z m-2055 -18 c-3 -3 -9 2 -12 12 -6 14 -5 15 5 6 7 -7 10 -15 7 -18z m552
15 c0 -5 -4 -10 -10 -10 -5 0 -10 5 -10 10 0 6 5 10 10 10 6 0 10 -4 10 -10z
m1634 -14 c-6 -16 -34 -30 -34 -18 0 10 22 32 32 32 4 0 5 -6 2 -14z m-179
-10 c-20 -14 -35 -12 -35 5 0 5 12 9 27 9 26 0 26 -1 8 -14z m-580 -6 c3 -5
-3 -10 -14 -10 -11 0 -23 5 -26 10 -3 6 3 10 14 10 11 0 23 -4 26 -10z m650
-37 c-35 -34 -85 -52 -85 -31 0 4 7 8 15 8 8 0 15 5 15 10 0 6 -4 10 -10 10
-18 0 -11 19 8 19 37 1 82 14 82 24 0 6 3 7 7 4 3 -4 -11 -24 -32 -44z m600
17 c-10 -11 -20 -18 -23 -15 -7 6 18 35 31 35 5 0 2 -9 -8 -20z m-69 -25 c-4
-14 -10 -25 -14 -25 -12 0 -10 44 2 52 15 10 19 2 12 -27z m-405 -23 c7 -20 5
-22 -21 -22 -27 0 -35 -9 -31 -32 0 -4 -17 -11 -40 -14 -33 -6 -40 -10 -36
-25 3 -12 0 -19 -9 -19 -19 0 -54 -36 -54 -55 0 -8 -5 -15 -10 -15 -14 0 -30
-43 -20 -54 10 -10 40 16 40 36 0 7 7 2 16 -11 14 -19 14 -25 3 -31 -7 -5 -17
-6 -22 -3 -5 3 -6 -4 -3 -15 8 -23 -8 -39 -20 -21 -5 9 -11 7 -21 -6 -12 -17
-13 -16 -13 12 0 33 -14 51 -25 33 -9 -14 -37 -12 -33 3 3 6 18 14 34 17 23 4
29 11 29 30 0 15 5 24 13 23 14 -3 16 19 3 33 -6 5 -5 15 2 24 20 26 114 90
131 90 9 0 16 4 16 9 0 5 10 7 22 3 16 -4 20 -2 15 10 -3 9 -3 19 1 22 10 11
25 1 33 -22z m-526 -12 c3 -5 -3 -10 -15 -10 -12 0 -18 5 -15 10 3 6 10 10 15
10 5 0 12 -4 15 -10z m-1785 -10 c0 -5 -2 -10 -4 -10 -3 0 -8 5 -11 10 -3 6
-1 10 4 10 6 0 11 -4 11 -10z m2084 -5 c19 -15 19 -15 -5 -16 -34 -2 -73 2
-79 8 -7 7 23 23 45 23 11 -1 29 -7 39 -15z m-1989 -15 c3 -5 -3 -10 -14 -10
-12 0 -21 5 -21 10 0 6 6 10 14 10 8 0 18 -4 21 -10z m288 -12 c15 1 16 -2 6
-14 -8 -10 -16 -11 -22 -5 -5 5 -22 7 -37 4 -17 -3 -31 0 -35 8 -6 9 -3 11 8
6 9 -3 19 -2 23 4 3 6 13 7 23 3 9 -4 24 -6 34 -6z m183 -3 c-24 -18 -52 -19
-62 -3 -5 8 0 9 14 6 12 -4 25 -2 28 3 3 5 13 9 22 9 15 -1 15 -2 -2 -15z
m1084 -5 c0 -5 -5 -10 -11 -10 -5 0 -7 5 -4 10 3 6 8 10 11 10 2 0 4 -4 4 -10z
m955 -55 c-38 -36 -74 -65 -79 -65 -5 0 1 10 15 22 13 12 45 41 71 65 26 24
51 43 55 43 4 -1 -23 -30 -62 -65z m-1081 46 c3 -5 -1 -11 -9 -15 -9 -3 -15 0
-15 9 0 16 16 20 24 6z m765 -17 c-11 -32 -7 -40 12 -21 18 17 64 27 80 16 10
-6 9 -12 -5 -28 -11 -12 -26 -21 -35 -21 -8 0 -25 -12 -36 -26 -19 -24 -23
-25 -43 -13 -15 10 -25 10 -32 3 -17 -17 -62 -5 -58 15 2 11 16 17 47 18 24 2
47 5 49 8 9 9 -6 17 -32 19 -14 0 -26 7 -26 14 0 7 5 10 10 7 16 -10 50 5 50
21 0 8 7 14 15 14 12 0 13 -5 4 -26z m201 22 c0 -3 -4 -8 -10 -11 -5 -3 -10
-1 -10 4 0 6 5 11 10 11 6 0 10 -2 10 -4z m-116 -100 c-8 -20 -24 -21 -24 0 0
8 5 12 10 9 6 -3 10 -1 10 6 0 7 2 10 5 7 3 -3 3 -13 -1 -22z m46 -1 c0 -8 -4
-15 -10 -15 -5 0 -10 7 -10 15 0 8 5 15 10 15 6 0 10 -7 10 -15z m-1080 -13
c0 -5 -7 -9 -15 -9 -8 0 -12 4 -9 9 3 4 9 8 15 8 5 0 9 -4 9 -8z m342 -24 c-9
-9 -12 -7 -12 12 0 19 3 21 12 12 9 -9 9 -15 0 -24z m-32 -18 c0 -5 -7 -7 -15
-4 -8 4 -15 8 -15 10 0 2 7 4 15 4 8 0 15 -4 15 -10z m600 -30 c0 -5 -5 -10
-11 -10 -5 0 -7 5 -4 10 3 6 8 10 11 10 2 0 4 -4 4 -10z m-325 -20 c3 -5 -1
-10 -10 -10 -9 0 -13 5 -10 10 3 6 8 10 10 10 2 0 7 -4 10 -10z m-1275 -16 c0
-2 -7 -4 -15 -4 -8 0 -15 4 -15 10 0 5 7 7 15 4 8 -4 15 -8 15 -10z m480 -5
c0 -5 -4 -9 -10 -9 -5 0 -10 7 -10 16 0 8 5 12 10 9 6 -3 10 -10 10 -16z
m1138 -1 c-6 -18 -28 -21 -28 -4 0 9 7 16 16 16 9 0 14 -5 12 -12z m-68 -30
c0 -7 -4 -20 -10 -28 -8 -12 -10 -12 -16 3 -3 9 -12 17 -20 17 -8 0 -14 5 -14
10 0 6 14 10 30 10 17 0 30 -5 30 -12z m-140 -12 c0 -3 -4 -8 -10 -11 -5 -3
-10 -1 -10 4 0 6 5 11 10 11 6 0 10 -2 10 -4z m70 -12 c0 -8 -5 -12 -10 -9 -6
4 -8 11 -5 16 9 14 15 11 15 -7z m-340 -14 c0 -5 -4 -10 -10 -10 -5 0 -10 5
-10 10 0 6 5 10 10 10 6 0 10 -4 10 -10z m-552 -78 c2 -7 -2 -10 -12 -6 -9 3
-16 11 -16 16 0 13 23 5 28 -10z m842 -147 c-7 -8 -17 -15 -23 -15 -6 0 -2 7
9 15 25 19 30 19 14 0z"/>
<path d="M2732 4201 c-11 -7 -11 -9 2 -14 20 -8 48 2 40 14 -7 11 -25 11 -42
0z"/>
<path d="M3151 2836 c-9 -10 -8 -15 1 -18 19 -7 38 2 38 18 0 18 -24 18 -39 0z"/>
<path d="M3201 2834 c0 -11 3 -14 6 -6 3 7 2 16 -1 19 -3 4 -6 -2 -5 -13z"/>
<path d="M2886 2825 c-9 -9 -21 -15 -28 -14 -18 4 -58 -11 -58 -21 0 -4 -10
-6 -21 -3 -16 4 -20 2 -17 -8 7 -18 55 -15 78 6 9 8 19 12 23 9 3 -4 22 1 41
10 19 9 41 16 50 16 9 0 16 5 16 10 0 16 -67 12 -84 -5z"/>
<path d="M3016 2792 c-2 -4 4 -8 14 -8 10 0 16 4 14 8 -3 4 -9 8 -14 8 -5 0
-11 -4 -14 -8z"/>
<path d="M2721 2764 c0 -11 3 -14 6 -6 3 7 2 16 -1 19 -3 4 -6 -2 -5 -13z"/>
<path d="M2960 2770 c0 -5 6 -10 14 -10 8 0 18 5 21 10 3 6 -3 10 -14 10 -12
0 -21 -4 -21 -10z"/>
<path d="M3190 2766 c-19 -6 -41 -15 -48 -20 -8 -4 -26 -12 -40 -16 -26 -8
-25 -8 9 -9 20 -1 39 2 43 7 4 4 25 12 47 17 22 6 40 14 40 20 1 14 -11 14
-51 1z"/>
<path d="M2880 2750 c0 -5 4 -10 9 -10 6 0 13 5 16 10 3 6 -1 10 -9 10 -9 0
-16 -4 -16 -10z"/>
<path d="M3585 2741 c-10 -17 9 -20 30 -5 18 14 18 14 -2 14 -12 0 -24 -4 -28
-9z"/>
<path d="M3235 2710 c-3 -5 1 -10 10 -10 9 0 13 5 10 10 -3 6 -8 10 -10 10 -2
0 -7 -4 -10 -10z"/>
<path d="M3813 2703 c9 -9 20 -13 24 -9 4 4 1 11 -7 16 -25 16 -35 11 -17 -7z"/>
<path d="M3155 2689 c-9 -14 -2 -20 14 -10 8 6 9 11 3 15 -6 3 -14 1 -17 -5z"/>
<path d="M3873 2673 c-17 -6 -16 -23 1 -23 8 0 16 7 20 15 6 15 1 17 -21 8z"/>
<path d="M4233 2650 c2 -8 12 -16 23 -17 13 -2 15 -1 4 4 -8 3 -19 11 -23 17
-6 7 -7 6 -4 -4z"/>
<path d="M4311 2639 c0 -9 -12 -25 -26 -35 -14 -10 -25 -23 -25 -28 0 -5 14 3
30 19 17 16 30 23 30 17 0 -9 10 -7 33 5 25 13 28 18 14 21 -10 2 -24 -1 -32
-8 -10 -9 -14 -7 -18 7 -4 14 -5 15 -6 2z"/>
<path d="M4396 2635 c-6 -16 3 -19 28 -9 9 3 13 10 10 15 -8 14 -31 11 -38 -6z"/>
<path d="M4517 2609 c-9 -5 -21 -8 -26 -4 -5 3 -13 0 -17 -6 -5 -9 2 -10 26
-6 18 4 39 7 46 7 8 0 14 5 14 10 0 13 -20 12 -43 -1z"/>
<path d="M3948 2593 c6 -2 18 -2 25 0 6 3 1 5 -13 5 -14 0 -19 -2 -12 -5z"/>
<path d="M4413 2568 c2 -7 10 -13 17 -13 7 0 15 6 18 13 2 7 -5 12 -18 12 -13
0 -20 -5 -17 -12z"/>
<path d="M4877 2573 c-4 -3 -7 -16 -6 -27 0 -19 1 -19 10 3 10 24 8 36 -4 24z"/>
<path d="M4375 2549 c-11 -4 -36 -8 -56 -8 -20 -1 -39 -4 -42 -8 -13 -13 26
-43 57 -44 17 0 40 -4 51 -8 22 -9 67 7 59 20 -3 5 -26 10 -52 10 -34 2 -39 3
-17 6 17 3 34 8 38 12 13 13 -16 29 -38 20z"/>
<path d="M3992 2530 c18 -11 123 -8 134 3 4 4 -28 7 -72 7 -57 -1 -74 -3 -62
-10z"/>
<path d="M4545 2531 c-3 -5 -1 -12 5 -16 5 -3 10 1 10 9 0 18 -6 21 -15 7z"/>
<path d="M4970 2530 c0 -5 7 -10 16 -10 8 0 12 5 9 10 -3 6 -10 10 -16 10 -5
0 -9 -4 -9 -10z"/>
<path d="M4205 2470 c3 -5 13 -10 21 -10 8 0 12 5 9 10 -3 6 -13 10 -21 10 -8
0 -12 -4 -9 -10z"/>
<path d="M4895 2469 c17 -7 18 -8 3 -8 -10 -1 -18 -8 -18 -17 0 -15 2 -15 25
0 13 9 33 16 45 16 11 0 20 4 20 8 0 5 -21 9 -47 9 -32 0 -41 -3 -28 -8z"/>
<path d="M5175 2470 c3 -5 11 -10 16 -10 6 0 7 5 4 10 -3 6 -11 10 -16 10 -6
0 -7 -4 -4 -10z"/>
<path d="M5475 2460 c-3 -5 -1 -10 4 -10 6 0 11 5 11 10 0 6 -2 10 -4 10 -3 0
-8 -4 -11 -10z"/>
<path d="M4840 2445 c0 -8 7 -15 15 -15 8 0 15 7 15 15 0 8 -7 15 -15 15 -8 0
-15 -7 -15 -15z"/>
<path d="M4795 2430 c3 -5 14 -10 23 -10 15 0 15 2 2 10 -20 13 -33 13 -25 0z"/>
<path d="M5414 2416 c-28 -7 -72 -22 -98 -34 -25 -12 -50 -22 -56 -22 -5 0
-10 -4 -10 -10 0 -12 43 -13 56 -1 13 12 108 -3 167 -27 35 -15 77 -15 97 -2
13 9 12 12 -4 25 -11 8 -27 15 -35 15 -13 0 -13 2 -3 9 11 7 11 9 -2 14 -10 4
-16 1 -16 -8 0 -10 -11 -15 -36 -15 -19 0 -33 4 -30 9 4 5 -4 7 -16 4 l-23 -5
24 21 c14 13 31 19 42 16 13 -4 19 -1 19 9 0 19 -7 19 -76 2z"/>
<path d="M4758 2413 c7 -3 16 -2 19 1 4 3 -2 6 -13 5 -11 0 -14 -3 -6 -6z"/>
<path d="M5248 2383 c7 -3 16 -2 19 1 4 3 -2 6 -13 5 -11 0 -14 -3 -6 -6z"/>
<path d="M5470 2380 c20 -13 33 -13 25 0 -3 6 -14 10 -23 10 -15 0 -15 -2 -2
-10z"/>
<path d="M6098 2343 c7 -3 16 -2 19 1 4 3 -2 6 -13 5 -11 0 -14 -3 -6 -6z"/>
<path d="M5316 2332 c-2 -4 -1 -14 5 -22 7 -12 9 -10 9 8 0 23 -5 28 -14 14z"/>
<path d="M5670 2331 c0 -5 5 -13 10 -16 6 -3 10 -2 10 4 0 5 -4 13 -10 16 -5
3 -10 2 -10 -4z"/>
<path d="M5921 2326 c2 -2 40 -6 84 -9 50 -4 71 -3 55 2 -24 9 -147 15 -139 7z"/>
<path d="M5876 2301 c-4 -5 -2 -12 3 -15 5 -4 12 -2 15 3 4 5 2 12 -3 15 -5 4
-12 2 -15 -3z"/>
<path d="M6130 2300 c0 -5 14 -11 30 -11 46 -2 48 -3 70 -21 20 -18 26 -13 12
9 -16 26 -112 45 -112 23z"/>
<path d="M5868 2263 c6 -2 18 -2 25 0 6 3 1 5 -13 5 -14 0 -19 -2 -12 -5z"/>
<path d="M5771 2243 c-13 -14 -12 -18 4 -29 23 -17 97 -18 142 -2 58 21 30 41
-37 26 -19 -4 -48 -7 -65 -6 l-30 1 28 4 c15 2 27 9 27 14 0 15 -54 9 -69 -8z"/>
<path d="M6430 2250 c0 -5 9 -10 20 -10 11 0 20 5 20 10 0 6 -9 10 -20 10 -11
0 -20 -4 -20 -10z"/>
<path d="M6558 2213 c6 -2 18 -2 25 0 6 3 1 5 -13 5 -14 0 -19 -2 -12 -5z"/>
<path d="M6573 2194 c-36 -18 -36 -35 0 -27 26 7 47 22 47 34 0 13 -10 11 -47
-7z"/>
<path d="M6695 2179 c-4 -6 -5 -12 -2 -15 2 -3 7 2 10 11 7 17 1 20 -8 4z"/>
<path d="M6315 2171 c15 -14 108 -18 112 -5 2 7 -19 12 -59 13 -40 1 -59 -2
-53 -8z"/>
<path d="M6470 2169 c0 -5 9 -9 20 -9 11 0 20 2 20 4 0 2 -9 6 -20 9 -11 3
-20 1 -20 -4z"/>
<path d="M7116 2135 c-3 -9 0 -15 9 -15 9 0 12 6 9 15 -4 8 -7 15 -9 15 -2 0
-5 -7 -9 -15z"/>
<path d="M6096 2131 c-13 -21 68 -51 139 -51 49 0 31 16 -30 26 -22 3 -49 13
-60 20 -22 16 -41 18 -49 5z"/>
<path d="M6375 2133 c-11 -3 -24 -10 -30 -15 -12 -13 35 0 50 13 5 5 7 8 5 8
-3 -1 -14 -3 -25 -6z"/>
<path d="M6816 2121 c-5 -7 4 -11 23 -11 22 0 31 -5 31 -16 0 -13 7 -15 32
-10 18 3 37 11 43 17 7 8 0 9 -24 4 -20 -4 -36 -3 -40 3 -10 16 -58 25 -65 13z"/>
<path d="M7150 2119 c0 -5 5 -7 10 -4 6 3 10 8 10 11 0 2 -4 4 -10 4 -5 0 -10
-5 -10 -11z"/>
<path d="M6820 2070 c0 -5 9 -10 21 -10 11 0 17 5 14 10 -3 6 -13 10 -21 10
-8 0 -14 -4 -14 -10z"/>
<path d="M7060 2070 c0 -6 7 -10 15 -10 8 0 15 2 15 4 0 2 -7 6 -15 10 -8 3
-15 1 -15 -4z"/>
<path d="M6170 2060 c-13 -8 -13 -10 2 -10 9 0 20 5 23 10 8 13 -5 13 -25 0z"/>
<path d="M7387 2050 c3 -11 12 -20 19 -20 17 0 18 12 2 28 -18 18 -27 15 -21
-8z"/>
<path d="M7186 2051 c-4 -7 -5 -15 -2 -18 9 -9 19 4 14 18 -4 11 -6 11 -12 0z"/>
<path d="M7090 2040 c0 -5 5 -10 10 -10 6 0 10 5 10 10 0 6 -4 10 -10 10 -5 0
-10 -4 -10 -10z"/>
<path d="M7087 2013 c-12 -11 -8 -23 8 -23 8 0 15 7 15 15 0 16 -12 20 -23 8z"/>
<path d="M7788 2003 c7 -3 16 -2 19 1 4 3 -2 6 -13 5 -11 0 -14 -3 -6 -6z"/>
<path d="M7772 1971 c-11 -7 -10 -10 3 -15 19 -7 35 0 35 15 0 11 -20 12 -38
0z"/>
<path d="M7470 1940 c0 -5 5 -10 11 -10 5 0 7 5 4 10 -3 6 -8 10 -11 10 -2 0
-4 -4 -4 -10z"/>
<path d="M8785 1770 c-3 -5 -1 -10 4 -10 6 0 11 5 11 10 0 6 -2 10 -4 10 -3 0
-8 -4 -11 -10z"/>
<path d="M8910 1580 c0 -5 4 -10 9 -10 6 0 13 5 16 10 3 6 -1 10 -9 10 -9 0
-16 -4 -16 -10z"/>
<path d="M8880 1549 c0 -5 5 -7 10 -4 6 3 10 8 10 11 0 2 -4 4 -10 4 -5 0 -10
-5 -10 -11z"/>
<path d="M8668 1533 c7 -3 16 -2 19 1 4 3 -2 6 -13 5 -11 0 -14 -3 -6 -6z"/>
<path d="M8518 1420 c2 -22 8 -37 13 -34 10 6 12 35 3 58 -11 29 -20 16 -16
-24z"/>
<path d="M8527 1344 c-15 -13 -25 -24 -21 -24 3 0 2 -6 -4 -13 -13 -15 -5 -57
11 -57 6 0 23 12 38 26 23 22 26 30 18 56 -11 40 -10 40 -42 12z"/>
<path d="M8952 1290 c0 -14 2 -19 5 -12 2 6 2 18 0 25 -3 6 -5 1 -5 -13z"/>
<path d="M8756 1255 c-3 -9 0 -15 8 -15 7 0 19 7 26 15 10 12 9 15 -8 15 -11
0 -22 -7 -26 -15z"/>
<path d="M8476 1245 c-3 -8 -1 -15 4 -15 6 0 10 7 10 15 0 8 -2 15 -4 15 -2 0
-6 -7 -10 -15z"/>
<path d="M8720 1220 c0 -5 5 -10 10 -10 6 0 10 5 10 10 0 6 -4 10 -10 10 -5 0
-10 -4 -10 -10z"/>
<path d="M8160 1191 c0 -25 6 -27 13 -6 4 8 2 17 -3 20 -6 4 -10 -3 -10 -14z"/>
<path d="M8780 1186 c0 -9 30 -14 35 -6 4 6 -3 10 -14 10 -12 0 -21 -2 -21 -4z"/>
<path d="M8396 1155 c-3 -8 -15 -15 -26 -15 -21 0 -27 -14 -10 -25 13 -8 60
24 60 41 0 19 -16 18 -24 -1z"/>
<path d="M8631 1154 c-18 -21 -6 -30 14 -11 8 9 15 18 15 21 0 11 -15 5 -29
-10z"/>
<path d="M8485 1139 c-4 -6 -4 -13 -1 -16 8 -8 36 5 36 17 0 13 -27 13 -35 -1z"/>
<path d="M8000 1114 c-19 -7 -27 -13 -17 -13 9 -1 17 -7 17 -13 0 -9 4 -8 10
2 9 13 12 12 25 -4 12 -16 17 -18 28 -7 9 11 9 14 -1 18 -6 3 -10 8 -7 13 9
15 -20 17 -55 4z"/>
<path d="M7858 1023 c7 -3 16 -2 19 1 4 3 -2 6 -13 5 -11 0 -14 -3 -6 -6z"/>
<path d="M8143 1013 c-13 -2 -23 -11 -23 -20 0 -8 5 -12 13 -9 6 3 20 9 30 12
16 6 25 25 10 23 -5 -1 -18 -4 -30 -6z"/>
<path d="M8130 770 c0 -11 5 -20 10 -20 6 0 10 9 10 20 0 11 -4 20 -10 20 -5
0 -10 -9 -10 -20z"/>
<path d="M7290 2550 c-13 -8 -13 -10 2 -10 9 0 20 5 23 10 8 13 -5 13 -25 0z"/>
<path d="M7945 1170 c-3 -5 -1 -10 4 -10 6 0 11 5 11 10 0 6 -2 10 -4 10 -3 0
-8 -4 -11 -10z"/>
<path d="M7774 1089 c-10 -17 13 -36 27 -22 12 12 4 33 -11 33 -5 0 -12 -5
-16 -11z"/>
<path d="M7780 949 c0 -5 5 -7 10 -4 6 3 10 8 10 11 0 2 -4 4 -10 4 -5 0 -10
-5 -10 -11z"/>
<path d="M7704 898 c-4 -13 -12 -26 -18 -30 -24 -15 24 -19 53 -3 38 19 39 28
6 43 -33 15 -32 16 -41 -10z"/>
<path d="M7055 6630 c17 -7 17 -9 3 -9 -22 -1 -24 -17 -3 -25 8 -3 14 -11 13
-18 -2 -9 9 -13 35 -12 20 1 37 -3 37 -7 0 -5 14 -9 31 -9 17 0 28 4 24 10 -3
6 -17 10 -30 10 -18 0 -24 6 -27 28 -3 23 -7 27 -33 24 -23 -2 -27 -1 -15 7
12 8 7 11 -20 10 -29 0 -31 -2 -15 -9z"/>
<path d="M2305 6590 c-13 -21 12 -35 40 -22 25 12 41 9 83 -11 18 -8 26 -7 38
5 14 14 10 16 -38 21 -29 3 -67 9 -84 12 -20 5 -34 3 -39 -5z"/>
<path d="M2486 6561 c-4 -6 4 -13 19 -16 14 -3 36 -7 50 -10 31 -7 79 5 68 16
-14 13 -130 23 -137 10z"/>
<path d="M1990 6500 c0 -5 5 -10 10 -10 6 0 10 5 10 10 0 6 -4 10 -10 10 -5 0
-10 -4 -10 -10z"/>
<path d="M3012 6423 c-15 -6 -6 -23 14 -23 8 0 14 7 14 15 0 15 -6 17 -28 8z"/>
<path d="M3154 6409 c9 -13 16 -32 16 -43 0 -19 -2 -18 -17 4 -9 14 -18 27
-19 29 -1 1 -14 -8 -28 -20 -27 -26 -27 -69 0 -69 9 0 14 -12 14 -35 0 -24 5
-35 15 -35 8 0 15 -4 15 -9 0 -5 8 -11 19 -14 12 -3 20 -17 24 -44 6 -37 8
-39 37 -35 16 2 52 -4 80 -14 40 -14 50 -22 48 -38 -2 -15 5 -22 32 -28 55
-14 63 -14 67 -1 2 7 -12 17 -35 24 -24 7 -45 21 -53 35 -7 13 -23 31 -36 39
-23 15 -32 45 -14 45 5 0 17 -7 25 -16 9 -8 16 -11 16 -5 0 7 10 9 25 5 23 -6
25 -3 27 27 0 19 0 42 0 52 -1 10 5 20 13 23 9 4 15 19 15 38 0 31 -2 33 -40
34 -29 1 -40 -2 -40 -13 0 -11 -6 -12 -22 -6 -13 5 -23 12 -23 17 -1 5 -6 19
-13 31 -12 22 -27 26 -116 38 l-48 7 16 -23z m51 -119 c10 -11 15 -23 12 -27
-9 -9 -55 16 -61 33 -8 22 28 17 49 -6z m160 -10 c3 -5 -3 -10 -14 -10 -12 0
-21 5 -21 10 0 6 6 10 14 10 8 0 18 -4 21 -10z m-115 -106 c0 -11 -5 -14 -16
-10 -9 3 -20 6 -25 6 -5 0 -9 5 -9 10 0 6 11 10 25 10 16 0 25 -6 25 -16z"/>
<path d="M2625 6410 c3 -5 8 -10 11 -10 2 0 4 5 4 10 0 6 -5 10 -11 10 -5 0
-7 -4 -4 -10z"/>
<path d="M2930 6410 c0 -5 5 -10 10 -10 6 0 10 5 10 10 0 6 -4 10 -10 10 -5 0
-10 -4 -10 -10z"/>
<path d="M2860 6379 c9 -16 14 -18 26 -8 12 10 12 14 2 20 -26 17 -40 11 -28
-12z"/>
<path d="M3050 6390 c-18 -12 -2 -12 25 0 13 6 15 9 5 9 -8 0 -22 -4 -30 -9z"/>
<path d="M2810 6381 c0 -5 3 -17 6 -26 5 -13 8 -14 15 -3 13 20 11 38 -6 38
-8 0 -15 -4 -15 -9z"/>
<path d="M7898 6383 c7 -3 16 -2 19 1 4 3 -2 6 -13 5 -11 0 -14 -3 -6 -6z"/>
<path d="M2780 6321 c0 -6 5 -13 10 -16 6 -3 10 1 10 9 0 9 -4 16 -10 16 -5 0
-10 -4 -10 -9z"/>
<path d="M8240 6310 c0 -13 11 -13 30 0 12 8 11 10 -7 10 -13 0 -23 -4 -23
-10z"/>
<path d="M2820 6239 c0 -5 5 -7 10 -4 6 3 10 8 10 11 0 2 -4 4 -10 4 -5 0 -10
-5 -10 -11z"/>
<path d="M8630 6230 c-11 -8 -7 -9 15 -4 37 8 45 14 19 14 -10 0 -26 -5 -34
-10z"/>
<path d="M8680 6210 c-59 -9 -53 -11 63 -26 37 -4 57 -3 57 4 0 5 -11 13 -24
16 -13 3 -30 7 -38 9 -7 2 -33 1 -58 -3z"/>
<path d="M2690 6181 c-12 -9 -12 -11 2 -16 33 -13 118 -11 118 3 0 7 -13 12
-32 12 -18 0 -42 3 -53 5 -11 3 -27 1 -35 -4z"/>
<path d="M2824 6179 c-3 -6 -1 -16 5 -22 9 -9 14 -8 21 3 9 15 4 30 -10 30 -5
0 -12 -5 -16 -11z"/>
<path d="M9023 6150 c-13 -5 -23 -14 -23 -21 0 -17 61 -70 98 -86 39 -16 53
-9 72 38 11 27 11 33 -6 49 -22 21 -109 33 -141 20z"/>
<path d="M2560 6124 c0 -8 5 -12 10 -9 6 4 8 11 5 16 -9 14 -15 11 -15 -7z"/>
<path d="M2603 6127 c-11 -17 14 -29 37 -17 12 6 19 14 16 18 -10 10 -46 9
-53 -1z"/>
<path d="M2690 6130 c-11 -7 -11 -10 -2 -10 7 0 17 -10 22 -22 8 -21 9 -20 9
10 1 34 -4 38 -29 22z"/>
<path d="M11385 6120 c3 -5 8 -10 11 -10 2 0 4 5 4 10 0 6 -5 10 -11 10 -5 0
-7 -4 -4 -10z"/>
<path d="M2240 6091 c0 -6 15 -11 33 -12 35 -1 54 -4 78 -13 10 -5 16 -2 16 9
0 8 -7 15 -16 16 -9 0 -37 3 -63 5 -31 4 -48 1 -48 -5z"/>
<path d="M2488 5993 c6 -2 18 -2 25 0 6 3 1 5 -13 5 -14 0 -19 -2 -12 -5z"/>
<path d="M2185 5980 c-11 -4 -24 -5 -29 -2 -5 3 -6 0 -3 -5 4 -6 19 -13 35
-16 36 -7 146 3 135 13 -13 12 -116 19 -138 10z"/>
<path d="M2080 5928 c0 -4 5 -8 10 -8 6 0 5 -8 -2 -20 -7 -11 -18 -20 -25 -20
-16 0 -17 -16 -3 -25 6 -4 8 -11 4 -16 -4 -6 13 -9 45 -7 28 2 51 6 51 9 0 10
54 -3 65 -17 6 -8 17 -9 30 -4 17 7 17 9 3 9 -10 1 -18 5 -18 9 0 13 -67 42
-96 42 -21 0 -24 4 -22 26 2 22 -1 27 -19 29 -13 1 -23 -2 -23 -7z"/>
<path d="M2205 5930 c-4 -6 3 -10 14 -10 25 0 27 6 6 13 -8 4 -17 2 -20 -3z"/>
<path d="M2320 5925 c0 -9 5 -15 11 -13 6 2 11 8 11 13 0 5 -5 11 -11 13 -6 2
-11 -4 -11 -13z"/>
<path d="M2000 5904 c-18 -47 -11 -64 19 -45 9 6 10 11 2 15 -15 10 -14 43 2
49 9 4 9 6 -1 6 -7 1 -17 -11 -22 -25z"/>
<path d="M2250 5921 c0 -9 24 -21 41 -21 5 0 9 7 9 15 0 9 -9 15 -25 15 -14 0
-25 -4 -25 -9z"/>
<path d="M2050 5909 c0 -5 5 -7 10 -4 6 3 10 8 10 11 0 2 -4 4 -10 4 -5 0 -10
-5 -10 -11z"/>
<path d="M10080 5898 c0 -22 7 -26 73 -41 39 -9 94 -28 121 -42 27 -14 59 -25
71 -25 13 0 39 -7 58 -15 38 -16 65 -19 243 -35 61 -5 122 -14 137 -19 14 -6
68 -13 119 -16 51 -4 113 -12 138 -20 55 -16 160 -19 160 -5 0 5 9 10 20 10
27 0 25 18 -2 29 -35 13 -116 31 -141 31 -13 0 -28 5 -34 11 -6 6 -26 12 -44
14 -19 2 -65 8 -104 14 -38 6 -93 11 -121 11 -33 0 -56 5 -64 15 -7 8 -22 15
-34 15 -12 0 -46 12 -76 26 -64 31 -132 43 -265 49 -55 2 -135 7 -177 11 -78
7 -78 7 -78 -18z"/>
<path d="M2310 5879 c-12 -8 -12 -12 -2 -16 19 -7 14 -20 -10 -28 l-23 -8 23
-4 c12 -2 22 -9 22 -14 0 -6 4 -8 9 -5 11 7 12 74 2 80 -4 3 -13 0 -21 -5z"/>
<path d="M2380 5850 c0 -5 7 -10 15 -10 8 0 15 5 15 10 0 6 -7 10 -15 10 -8 0
-15 -4 -15 -10z"/>
<path d="M2685 5830 c3 -5 15 -10 25 -10 10 0 22 5 25 10 4 6 -7 10 -25 10
-18 0 -29 -4 -25 -10z"/>
<path d="M2280 5780 c0 -5 5 -10 11 -10 5 0 7 -4 4 -10 -3 -5 3 -10 13 -10 21
0 37 26 22 35 -4 3 -11 -1 -13 -7 -4 -10 -6 -10 -6 0 -1 14 -31 17 -31 2z"/>
<path d="M2110 5774 c-8 -3 -21 -8 -29 -10 -10 -3 -11 -8 -3 -16 7 -7 20 -7
44 1 18 6 34 8 36 3 1 -5 17 -6 34 -4 27 4 30 2 23 -14 -4 -11 -8 -27 -9 -37
-2 -10 -8 -22 -16 -27 -9 -6 -6 -10 11 -15 14 -5 25 -3 27 4 4 13 49 15 54 1
2 -5 23 0 47 11 29 13 55 17 76 13 18 -3 35 -1 39 4 4 6 -29 15 -85 23 -75 10
-92 16 -98 32 -5 14 -18 20 -47 22 -21 2 -50 5 -64 8 -14 4 -32 4 -40 1z"/>
<path d="M2471 5759 c-15 -15 -30 -19 -47 -15 -17 5 -24 2 -24 -9 0 -11 10
-15 36 -15 42 0 74 15 74 35 0 24 -16 25 -39 4z"/>
<path d="M2687 5743 c-13 -12 -7 -31 12 -36 21 -5 41 9 41 30 0 13 -41 18 -53
6z"/>
<path d="M2762 5734 c2 -11 11 -20 22 -22 13 -3 17 1 14 14 -2 11 -11 20 -22
22 -13 3 -17 -1 -14 -14z"/>
<path d="M2590 5710 c0 -5 6 -10 14 -10 8 0 18 5 21 10 3 6 -3 10 -14 10 -12
0 -21 -4 -21 -10z"/>
<path d="M2968 5688 c9 -9 15 -9 24 0 9 9 7 12 -12 12 -19 0 -21 -3 -12 -12z"/>
<path d="M2608 5663 c7 -3 16 -2 19 1 4 3 -2 6 -13 5 -11 0 -14 -3 -6 -6z"/>
<path d="M11298 5663 c6 -2 18 -2 25 0 6 3 1 5 -13 5 -14 0 -19 -2 -12 -5z"/>
<path d="M2106 5612 c-16 -18 -14 -19 42 -19 33 -1 72 -8 90 -17 17 -9 40 -16
52 -16 11 0 20 -4 20 -10 0 -5 -11 -10 -25 -10 -14 0 -25 -4 -25 -9 0 -5 14
-9 30 -9 21 1 30 6 30 18 0 21 30 31 53 19 20 -11 50 0 43 16 -2 7 0 17 6 23
8 8 7 13 -6 18 -11 4 -22 0 -30 -11 -12 -17 -14 -17 -40 0 -22 15 -32 16 -46
8 -19 -13 -67 -10 -120 6 -47 15 -54 14 -74 -7z m207 -29 c-7 -2 -19 -2 -25 0
-7 3 -2 5 12 5 14 0 19 -2 13 -5z"/>
<path d="M2478 5602 c-22 -2 -39 -9 -42 -19 -8 -20 -10 -19 51 -26 46 -5 53
-4 58 14 4 10 10 17 15 14 5 -3 11 -1 14 4 7 10 -43 17 -96 13z"/>
<path d="M2171 5560 c-10 -5 -8 -9 4 -14 23 -8 35 -8 35 3 0 13 -25 20 -39 11z"/>
<path d="M2100 5531 c0 -5 16 -11 36 -13 32 -4 34 -3 18 9 -20 15 -54 17 -54
4z"/>
<path d="M2400 5524 c0 -8 5 -12 10 -9 6 3 10 10 10 16 0 5 -4 9 -10 9 -5 0
-10 -7 -10 -16z"/>
<path d="M2430 5530 c0 -5 7 -10 16 -10 8 0 12 5 9 10 -3 6 -10 10 -16 10 -5
0 -9 -4 -9 -10z"/>
<path d="M2381 5490 c-19 -11 5 -23 25 -12 14 8 14 10 2 15 -8 3 -21 2 -27 -3z"/>
<path d="M2156 5481 c5 -5 24 -12 41 -16 28 -5 32 -4 27 9 -4 11 -19 16 -42
16 -22 0 -32 -4 -26 -9z"/>
<path d="M2091 5451 c-9 -6 1 -10 28 -13 24 -2 41 1 41 7 0 12 -51 17 -69 6z"/>
<path d="M1940 5395 c-13 -16 -8 -17 50 -17 39 0 46 2 30 11 -33 18 -68 21
-80 6z"/>
<path d="M2191 5394 c-12 -14 -12 -17 0 -25 12 -8 12 -11 -1 -19 -12 -8 -11
-10 7 -10 25 0 46 31 37 54 -8 20 -25 20 -43 0z"/>
<path d="M2300 5404 c0 -3 6 -12 14 -20 13 -12 15 -12 13 6 -1 17 -27 31 -27
14z"/>
<path d="M2418 5373 c7 -3 16 -2 19 1 4 3 -2 6 -13 5 -11 0 -14 -3 -6 -6z"/>
<path d="M2280 5350 l-25 -8 27 -1 c15 -1 30 4 33 9 7 11 0 11 -35 0z"/>
<path d="M2278 5273 c6 -2 18 -2 25 0 6 3 1 5 -13 5 -14 0 -19 -2 -12 -5z"/>
<path d="M2237 5246 c-6 -16 2 -28 14 -20 12 7 11 34 0 34 -5 0 -11 -6 -14
-14z"/>
<path d="M2355 5250 c3 -5 8 -10 11 -10 2 0 4 5 4 10 0 6 -5 10 -11 10 -5 0
-7 -4 -4 -10z"/>
<path d="M2390 5250 c0 -5 5 -10 11 -10 5 0 7 5 4 10 -3 6 -8 10 -11 10 -2 0
-4 -4 -4 -10z"/>
<path d="M2080 5199 c0 -5 5 -7 10 -4 6 3 10 8 10 11 0 2 -4 4 -10 4 -5 0 -10
-5 -10 -11z"/>
<path d="M1906 5163 c-3 -4 4 -13 16 -20 16 -9 18 -12 7 -13 -12 0 -15 -7 -11
-25 2 -14 9 -25 16 -25 16 0 44 20 29 20 -8 0 -11 12 -8 35 4 31 2 35 -18 35
-13 0 -27 -3 -31 -7z"/>
<path d="M1980 5163 c0 -15 15 -29 30 -28 24 0 17 30 -7 33 -13 2 -23 0 -23
-5z"/>
<path d="M2125 5150 c-3 -5 -1 -10 4 -10 6 0 11 5 11 10 0 6 -2 10 -4 10 -3 0
-8 -4 -11 -10z"/>
<path d="M2070 5140 c0 -5 5 -10 10 -10 6 0 10 5 10 10 0 6 -4 10 -10 10 -5 0
-10 -4 -10 -10z"/>
<path d="M2408 5083 c7 -3 16 -2 19 1 4 3 -2 6 -13 5 -11 0 -14 -3 -6 -6z"/>
<path d="M2211 5056 c-8 -10 -9 -16 -1 -21 5 -3 13 1 16 10 9 22 -1 29 -15 11z"/>
<path d="M2330 5040 c0 -5 5 -10 10 -10 6 0 10 5 10 10 0 6 -4 10 -10 10 -5 0
-10 -4 -10 -10z"/>
<path d="M2100 4990 c20 -13 57 -13 65 0 4 6 -11 10 -37 10 -31 0 -39 -3 -28
-10z"/>
<path d="M5033 4850 c-63 -4 -97 -10 -110 -21 -10 -9 -27 -20 -38 -25 -32 -14
88 -18 175 -5 41 6 97 13 124 16 51 5 76 15 38 15 -12 0 -22 4 -22 9 0 13 -61
17 -167 11z"/>
<path d="M4808 4783 c7 -3 16 -2 19 1 4 3 -2 6 -13 5 -11 0 -14 -3 -6 -6z"/>
<path d="M4465 4760 c3 -5 8 -10 11 -10 2 0 4 5 4 10 0 6 -5 10 -11 10 -5 0
-7 -4 -4 -10z"/>
<path d="M3508 4703 c6 -2 18 -2 25 0 6 3 1 5 -13 5 -14 0 -19 -2 -12 -5z"/>
<path d="M8938 3213 c7 -3 16 -2 19 1 4 3 -2 6 -13 5 -11 0 -14 -3 -6 -6z"/>
<path d="M8808 3163 c7 -3 16 -2 19 1 4 3 -2 6 -13 5 -11 0 -14 -3 -6 -6z"/>
<path d="M8727 2603 c-4 -3 -7 -11 -7 -17 0 -6 5 -5 12 2 6 6 9 14 7 17 -3 3
-9 2 -12 -2z"/>
<path d="M9252 499 c2 -6 8 -10 13 -10 5 0 11 4 13 10 2 6 -4 11 -13 11 -9 0
-15 -5 -13 -11z"/>
</g>
</svg>
